<svg width="70" height="70" viewBox="0 0 70 70" fill="none" xmlns="http://www.w3.org/2000/svg">
<path d="M34.895 69.79C54.167 69.79 69.79 54.167 69.79 34.895C69.79 15.623 54.167 0 34.895 0C15.623 0 0 15.623 0 34.895C0 54.167 15.623 69.79 34.895 69.79Z" fill="url(#paint0_linear_3102_1159)"/>
<path d="M27.3422 29.9752C17.3747 29.9752 11.2029 28.6263 8.97166 25.9552C7.99017 24.7804 8.14083 23.7621 8.18088 23.5695C8.2953 23.0151 8.83243 22.6522 9.39501 22.7749C9.93025 22.8861 10.2799 23.3953 10.2011 23.9286C10.2023 23.9858 10.2252 24.3215 10.6899 24.7963C11.974 26.1096 16.2534 28.262 30.553 27.8781C30.5619 27.8781 30.5708 27.8781 30.5809 27.8781C31.1353 27.8781 31.591 28.3199 31.6063 28.8774C31.6216 29.4438 31.1734 29.9154 30.607 29.9307C29.4768 29.9599 28.3872 29.9752 27.3422 29.9752Z" fill="black"/>
<path d="M22.7539 32.181C22.7539 34.65 21.0528 36.6512 18.9551 36.6512C16.8573 36.6512 15.1562 34.65 15.1562 32.181C15.1562 29.7121 16.8573 27.7109 18.9551 27.7109C21.0528 27.7109 22.7539 29.7127 22.7539 32.181Z" fill="black"/>
<path d="M42.4435 29.975C41.3972 29.975 40.3089 29.9597 39.1793 29.9311C38.6129 29.9159 38.1654 29.4442 38.18 28.8778C38.1947 28.3108 38.7019 27.8804 39.2334 27.8785C53.5355 28.2663 57.8136 26.1094 59.0964 24.7968C59.5974 24.2844 59.5853 23.9348 59.5853 23.9208C59.469 23.3652 59.8307 22.8567 60.3862 22.741C60.9425 22.6259 61.4911 23.0143 61.6048 23.5699C61.6449 23.7625 61.7955 24.7809 60.814 25.9556C58.5834 28.6261 52.4091 29.975 42.4435 29.975Z" fill="black"/>
<path d="M50.8262 36.6512C52.9242 36.6512 54.625 34.6498 54.625 32.181C54.625 29.7123 52.9242 27.7109 50.8262 27.7109C48.7281 27.7109 47.0273 29.7123 47.0273 32.181C47.0273 34.6498 48.7281 36.6512 50.8262 36.6512Z" fill="black"/>
<path d="M48.5027 50.0327C42.8776 44.9396 25.5236 44.9396 19.8984 50.0327H48.5027Z" fill="black"/>
<defs>
<linearGradient id="paint0_linear_3102_1159" x1="34.8949" y1="0" x2="34.8949" y2="69.79" gradientUnits="userSpaceOnUse">
<stop stop-color="#FD4310"/>
<stop offset="0.7824" stop-color="#FDDF08"/>
</linearGradient>
</defs>
</svg>
