<svg width="70" height="70" viewBox="0 0 70 70" fill="none" xmlns="http://www.w3.org/2000/svg">
<path d="M34.895 69.79C54.167 69.79 69.79 54.167 69.79 34.895C69.79 15.623 54.167 0 34.895 0C15.623 0 0 15.623 0 34.895C0 54.167 15.623 69.79 34.895 69.79Z" fill="url(#paint0_radial_3102_1061)"/>
<path d="M13.2854 27.8421C13.1062 27.8421 12.9231 27.797 12.7553 27.7035C12.2283 27.4092 12.0408 26.7449 12.3332 26.2186C14.197 22.8838 17.5896 20.8916 21.4094 20.8916C21.4094 20.8916 21.4094 20.8916 21.4107 20.8916C25.2292 20.8922 28.6218 22.8832 30.4844 26.2186C30.7768 26.7449 30.5893 27.4099 30.0623 27.7035C29.5366 27.9991 28.8717 27.8065 28.578 27.2827C27.1077 24.6472 24.4283 23.0745 21.4094 23.0739C18.3906 23.0739 15.7112 24.6472 14.2396 27.2827C14.0394 27.6412 13.6687 27.8421 13.2854 27.8421Z" fill="black"/>
<path d="M39.473 27.8421C39.2937 27.8421 39.1106 27.797 38.9428 27.7035C38.4158 27.4092 38.2283 26.7449 38.5207 26.2186C40.3845 22.8838 43.7771 20.8916 47.5969 20.8916C47.5969 20.8916 47.5969 20.8916 47.5982 20.8916C51.4167 20.8922 54.8094 22.8832 56.6719 26.2186C56.965 26.7449 56.7774 27.4099 56.2498 27.7035C55.7228 27.9991 55.0592 27.8065 54.7649 27.2827C53.2945 24.6472 50.6151 23.0745 47.5963 23.0739C44.5775 23.0739 41.8981 24.6472 40.4265 27.2827C40.2269 27.6412 39.8563 27.8421 39.473 27.8421Z" fill="black"/>
<path d="M24.3466 45.8223C24.6556 45.8223 24.9594 45.9602 25.1616 46.2234L26.3014 47.7064C28.2739 50.2733 31.2628 51.7455 34.4997 51.7455C37.7372 51.7455 40.7256 50.2733 42.6981 47.7064L43.8379 46.2234C44.1818 45.7765 44.8251 45.6881 45.277 46.0346C45.7258 46.3804 45.811 47.0237 45.4652 47.4738L44.3254 48.9568C41.9613 52.0341 38.3793 53.7975 34.4991 53.7975C30.6195 53.7975 27.0375 52.0335 24.6727 48.9568L23.533 47.4738C23.1872 47.0237 23.2724 46.3804 23.7211 46.0346C23.9087 45.8909 24.1292 45.8223 24.3466 45.8223Z" fill="black"/>
<g filter="url(#filter0_f_3102_1061)">
<path d="M15.5873 45.6826C17.8619 45.6826 19.7059 43.2973 19.7059 40.355C19.7059 37.4126 17.8619 35.0273 15.5873 35.0273C13.3127 35.0273 11.4688 37.4126 11.4688 40.355C11.4688 43.2973 13.3127 45.6826 15.5873 45.6826Z" fill="#F35247"/>
</g>
<g filter="url(#filter1_f_3102_1061)">
<path d="M53.4115 45.6826C55.6862 45.6826 57.5301 43.2973 57.5301 40.355C57.5301 37.4126 55.6862 35.0273 53.4115 35.0273C51.1369 35.0273 49.293 37.4126 49.293 40.355C49.293 43.2973 51.1369 45.6826 53.4115 45.6826Z" fill="#F35247"/>
</g>
<defs>
<filter id="filter0_f_3102_1061" x="2.4391" y="25.9977" width="26.2976" height="28.7146" filterUnits="userSpaceOnUse" color-interpolation-filters="sRGB">
<feFlood flood-opacity="0" result="BackgroundImageFix"/>
<feBlend mode="normal" in="SourceGraphic" in2="BackgroundImageFix" result="shape"/>
<feGaussianBlur stdDeviation="4.51483" result="effect1_foregroundBlur_3102_1061"/>
</filter>
<filter id="filter1_f_3102_1061" x="40.2633" y="25.9977" width="26.2976" height="28.7146" filterUnits="userSpaceOnUse" color-interpolation-filters="sRGB">
<feFlood flood-opacity="0" result="BackgroundImageFix"/>
<feBlend mode="normal" in="SourceGraphic" in2="BackgroundImageFix" result="shape"/>
<feGaussianBlur stdDeviation="4.51483" result="effect1_foregroundBlur_3102_1061"/>
</filter>
<radialGradient id="paint0_radial_3102_1061" cx="0" cy="0" r="1" gradientUnits="userSpaceOnUse" gradientTransform="translate(34.8948 34.8951) scale(34.895)">
<stop offset="0.7254" stop-color="#FFDD01"/>
<stop offset="1" stop-color="#FDBD11"/>
</radialGradient>
</defs>
</svg>
