<svg width="70" height="70" viewBox="0 0 70 70" fill="none" xmlns="http://www.w3.org/2000/svg">
<path d="M34.895 69.79C54.167 69.79 69.79 54.167 69.79 34.895C69.79 15.623 54.167 0 34.895 0C15.623 0 0 15.623 0 34.895C0 54.167 15.623 69.79 34.895 69.79Z" fill="url(#paint0_radial_3102_1077)"/>
<path d="M55.0388 27.6953H42.746C42.2241 27.6953 41.8008 27.2065 41.8008 26.6045C41.8008 26.0019 42.2241 25.5137 42.746 25.5137H55.0388C55.5607 25.5137 55.9841 26.0025 55.9841 26.6045C55.9841 27.2065 55.5607 27.6953 55.0388 27.6953Z" fill="black"/>
<path d="M46.872 48.0615H22.9171C21.9 48.0615 21.0742 47.5727 21.0742 46.9707C21.0742 46.3681 21.8993 45.8799 22.9171 45.8799H46.872C47.8891 45.8799 48.7148 46.3687 48.7148 46.9707C48.7148 47.5727 47.8891 48.0615 46.872 48.0615Z" fill="black"/>
<path d="M27.3982 27.6953H15.1054C14.5835 27.6953 14.1602 27.2065 14.1602 26.6045C14.1602 26.0019 14.5835 25.5137 15.1054 25.5137H27.3982C27.9201 25.5137 28.3441 26.0025 28.3441 26.6045C28.3441 27.2065 27.9207 27.6953 27.3982 27.6953Z" fill="black"/>
<defs>
<radialGradient id="paint0_radial_3102_1077" cx="0" cy="0" r="1" gradientUnits="userSpaceOnUse" gradientTransform="translate(34.895 34.8951) scale(34.8949 34.8949)">
<stop offset="0.7254" stop-color="#FFDD01"/>
<stop offset="1" stop-color="#FDBD11"/>
</radialGradient>
</defs>
</svg>
