<svg width="70" height="70" viewBox="0 0 70 70" fill="none" xmlns="http://www.w3.org/2000/svg">
<path d="M34.895 69.79C54.167 69.79 69.79 54.167 69.79 34.895C69.79 15.623 54.167 0 34.895 0C15.623 0 0 15.623 0 34.895C0 54.167 15.623 69.79 34.895 69.79Z" fill="url(#paint0_radial_3102_1089)"/>
<path d="M66.2621 61.5755C65.5731 57.2 60.7361 48 60.7361 48C60.7361 48 55.9001 57.2 55.2101 61.5755C54.1421 68.3424 57.4171 69 60.5601 69C60.6171 69 60.6771 68.9985 60.7361 68.9978C60.7951 68.9985 60.8541 69 60.9131 69C64.0551 69 67.3301 68.3424 66.2621 61.5755Z" fill="#24A4D1"/>
<path d="M64.9769 60.0239C64.4689 56.8005 61.4199 50.6235 60.4099 48.6357C59.3109 50.7911 55.7919 57.8924 55.2119 61.5752C55.1339 62.0705 55.0819 62.5292 55.0469 62.9619C55.3789 66.2218 57.6889 66.6001 59.9249 66.6001C59.9769 66.6001 60.0309 66.5993 60.0809 66.5979C60.1339 66.5993 60.1859 66.6001 60.2389 66.6001C63.0219 66.6009 65.9229 66.0177 64.9769 60.0239Z" fill="#27AAE1"/>
<path d="M62.2921 56.3564C62.1301 55.3271 61.1561 53.3535 60.8341 52.7197C60.4831 53.4071 59.3591 55.6757 59.1741 56.8516C59.1491 57.0103 59.1321 57.157 59.1211 57.2955C59.2281 58.336 59.9661 58.4573 60.6801 58.4573C60.6971 58.4573 60.7141 58.4566 60.7301 58.4566C60.7461 58.4566 60.7641 58.4573 60.7801 58.4573C61.6691 58.4566 62.5951 58.2704 62.2921 56.3564Z" fill="#CCEFFC"/>
<path d="M45.0505 52.3424C44.7416 52.3424 44.4384 52.2039 44.2356 51.9413L43.0958 50.4583C41.1233 47.8914 38.1344 46.4192 34.8975 46.4192C31.66 46.4192 28.6716 47.8914 26.6991 50.4583L25.5593 51.9413C25.2154 52.3882 24.5721 52.4766 24.1202 52.1301C23.6707 51.7843 23.5856 51.141 23.9314 50.6909L25.0712 49.2079C27.4352 46.1306 31.0179 44.3672 34.8975 44.3672C38.777 44.3672 42.3591 46.1312 44.7238 49.2079L45.8636 50.6909C46.2094 51.141 46.1242 51.7843 45.6754 52.1301C45.4885 52.2731 45.268 52.3424 45.0505 52.3424Z" fill="black"/>
<path d="M24.6524 31.08C25.2402 28.5812 23.6911 26.079 21.1923 25.4911C18.6936 24.9032 16.1913 26.4523 15.6035 28.9511C15.0156 31.4499 16.5647 33.9521 19.0635 34.54C21.5623 35.1279 24.0645 33.5787 24.6524 31.08Z" fill="black"/>
<path d="M10.1162 27.1807C9.99603 27.1807 9.87462 27.1598 9.75638 27.1153C9.22622 26.9169 8.9567 26.327 9.15503 25.7962C10.38 22.5085 14.4744 16.933 21.2113 19.374C21.7434 19.5672 22.0193 20.1558 21.8267 20.6892C21.6334 21.2212 21.0467 21.4978 20.5114 21.3045C14.018 18.9493 11.1936 26.2056 11.0773 26.5152C10.9216 26.9271 10.5306 27.1807 10.1162 27.1807Z" fill="black"/>
<path d="M50.7119 34.547C53.2107 33.9591 54.7598 31.4569 54.1719 28.9581C53.584 26.4593 51.0818 24.9102 48.5831 25.4981C46.0843 26.0859 44.5351 28.5882 45.123 31.087C45.7109 33.5857 48.2131 35.1348 50.7119 34.547Z" fill="black"/>
<path d="M59.6781 27.1807C59.263 27.1807 58.8721 26.9271 58.717 26.5151C58.6006 26.2056 55.7782 18.9518 49.2828 21.3045C48.7508 21.4977 48.1615 21.2212 47.9676 20.6891C47.775 20.1558 48.0509 19.5678 48.583 19.3739C55.3244 16.9354 59.4156 22.5103 60.6393 25.7962C60.8376 26.3276 60.5681 26.9169 60.0379 27.1152C59.9197 27.1597 59.7983 27.1807 59.6781 27.1807Z" fill="black"/>
<defs>
<radialGradient id="paint0_radial_3102_1089" cx="0" cy="0" r="1" gradientUnits="userSpaceOnUse" gradientTransform="translate(34.895 34.895) scale(34.8949 34.8949)">
<stop offset="0.7254" stop-color="#FFDE0B"/>
<stop offset="1" stop-color="#FDAA11"/>
</radialGradient>
</defs>
</svg>
