<svg width="70" height="70" viewBox="0 0 70 70" fill="none" xmlns="http://www.w3.org/2000/svg">
<path d="M34.895 69.79C54.167 69.79 69.79 54.167 69.79 34.895C69.79 15.623 54.167 0 34.895 0C15.623 0 0 15.623 0 34.895C0 54.167 15.623 69.79 34.895 69.79Z" fill="url(#paint0_radial_3102_1171)"/>
<path d="M45.0505 52.3424C44.7416 52.3424 44.4384 52.2039 44.2356 51.9413L43.0958 50.4583C41.1233 47.8914 38.1344 46.4192 34.8975 46.4192C31.66 46.4192 28.6716 47.8914 26.6991 50.4583L25.5593 51.9413C25.2154 52.3882 24.5721 52.4766 24.1202 52.1301C23.6707 51.7843 23.5856 51.141 23.9314 50.6909L25.0712 49.2079C27.4352 46.1306 31.0179 44.3672 34.8975 44.3672C38.777 44.3672 42.3591 46.1312 44.7238 49.2079L45.8636 50.6909C46.2094 51.141 46.1242 51.7843 45.6754 52.1301C45.4885 52.2731 45.268 52.3424 45.0505 52.3424Z" fill="black"/>
<path d="M24.6524 31.079C25.2402 28.5802 23.6911 26.078 21.1923 25.4901C18.6936 24.9023 16.1913 26.4514 15.6035 28.9502C15.0156 31.4489 16.5647 33.9512 19.0635 34.539C21.5623 35.1269 24.0645 33.5778 24.6524 31.079Z" fill="black"/>
<path d="M21.876 14.7089C21.9962 14.7089 22.1176 14.7299 22.2358 14.7744C22.766 14.9727 23.0355 15.5626 22.8372 16.0934C21.6122 19.3812 17.5178 24.9567 10.7809 22.5157C10.2488 22.3224 9.97292 21.7338 10.1655 21.2005C10.3588 20.6684 10.9455 20.3919 11.4808 20.5851C17.9742 22.9403 20.7985 15.684 20.9149 15.3745C21.0706 14.9625 21.4616 14.7089 21.876 14.7089Z" fill="black"/>
<path d="M50.7119 34.546C53.2107 33.9581 54.7598 31.4559 54.1719 28.9572C53.584 26.4584 51.0818 24.9093 48.5831 25.4971C46.0843 26.085 44.5351 28.5872 45.123 31.086C45.7109 33.5848 48.2131 35.1339 50.7119 34.546Z" fill="black"/>
<path d="M47.3649 15.9814C47.78 15.9814 48.1709 16.2351 48.326 16.647C48.4423 16.9566 51.2647 24.2103 57.7601 21.8577C58.2922 21.6644 58.8815 21.9409 59.0753 22.473C59.268 23.0063 58.9921 23.5943 58.46 23.7882C51.7186 26.2267 47.6274 20.6518 46.4037 17.3659C46.2054 16.8345 46.4749 16.2452 47.0051 16.0469C47.1233 16.0024 47.2447 15.9814 47.3649 15.9814Z" fill="black"/>
<defs>
<radialGradient id="paint0_radial_3102_1171" cx="0" cy="0" r="1" gradientUnits="userSpaceOnUse" gradientTransform="translate(34.895 34.895) scale(34.8949 34.8949)">
<stop offset="0.7254" stop-color="#FFDE0B"/>
<stop offset="1" stop-color="#FDAA11"/>
</radialGradient>
</defs>
</svg>
