<svg width="55" height="50" viewBox="0 0 55 50" fill="none" xmlns="http://www.w3.org/2000/svg">
<rect width="54.5089" height="49.1474" rx="14.2974" fill="url(#paint0_linear_3046_21351)"/>
<path fill-rule="evenodd" clip-rule="evenodd" d="M36.0985 21.958C35.7291 18.1692 33.4892 12.2119 26.5669 12.2119C19.6445 12.2119 17.4046 18.1692 17.0353 21.958C15.7396 22.4498 14.8849 23.6937 14.8907 25.0796V26.7476C14.8907 28.5901 16.3843 30.0837 18.2267 30.0837C20.0692 30.0837 21.5628 28.59 21.5628 26.7476V25.0796C21.5568 23.7236 20.7336 22.5052 19.4777 21.9937C19.716 19.8014 20.8837 14.5948 26.5669 14.5948C32.2501 14.5948 33.4058 19.8014 33.6441 21.9937C32.3909 22.5063 31.5718 23.7256 31.571 25.0796V26.7476C31.5735 27.3754 31.7525 27.9897 32.0875 28.5206C32.4225 29.0515 32.8999 29.4775 33.4654 29.7501C32.965 30.6913 31.6901 31.9662 28.5566 32.3474C27.9302 31.3963 26.7184 31.0213 25.6643 31.4526C24.6102 31.8837 24.0086 33.0005 24.2284 34.118C24.4482 35.2354 25.428 36.041 26.5669 36.041C27.0082 36.0385 27.4401 35.9135 27.8146 35.68C28.189 35.4465 28.4913 35.1136 28.6877 34.7184C33.799 34.1346 35.4313 31.5015 35.9436 29.9526C37.3296 29.5036 38.2618 28.2045 38.2431 26.7476V25.0796C38.2488 23.6937 37.3942 22.4498 36.0985 21.958ZM19.1799 26.7476C19.1799 27.274 18.7531 27.7008 18.2267 27.7008C17.7003 27.7008 17.2736 27.2741 17.2736 26.7476V25.0796C17.2726 24.9538 17.2966 24.8291 17.344 24.7126C17.3915 24.5961 17.4615 24.4902 17.5502 24.4009C17.6388 24.3116 17.7442 24.2407 17.8603 24.1924C17.9764 24.144 18.1009 24.1191 18.2267 24.1191C18.3525 24.1191 18.4771 24.144 18.5932 24.1924C18.7093 24.2407 18.8147 24.3116 18.9033 24.4009C18.9919 24.4902 19.062 24.5961 19.1094 24.7126C19.1569 24.8291 19.1808 24.9538 19.1799 25.0796V26.7476ZM33.9539 25.0796C33.9539 24.5532 34.3806 24.1264 34.907 24.1264C35.4335 24.1264 35.8602 24.5532 35.8602 25.0796V26.7476C35.8602 27.274 35.4335 27.7008 34.907 27.7008C34.3806 27.7008 33.9539 27.2741 33.9539 26.7476V25.0796Z" fill="white"/>
<defs>
<linearGradient id="paint0_linear_3046_21351" x1="-0.441407" y1="3.37305" x2="45.5586" y2="51.873" gradientUnits="userSpaceOnUse">
<stop stop-color="#4FC1F9"/>
<stop offset="1" stop-color="#1B9EE0"/>
</linearGradient>
</defs>
</svg>
