<svg width="55" height="50" viewBox="0 0 55 50" fill="none" xmlns="http://www.w3.org/2000/svg">
<rect width="54.5089" height="49.1474" rx="14.2974" fill="url(#paint0_linear_3046_21339)"/>
<path d="M19.6602 34.7556C19.0049 34.7556 18.4442 34.5225 17.9779 34.0562C17.5117 33.59 17.2781 33.0288 17.2773 32.3727V21.7445C17.2773 21.0893 17.5109 20.5285 17.9779 20.0622C18.445 19.596 19.0057 19.3624 19.6602 19.3616H20.8517V16.9787C20.8517 15.3306 21.4327 13.9258 22.5948 12.7646C23.7569 11.6033 25.1616 11.0223 26.809 11.0215C28.4563 11.0207 29.8615 11.6017 31.0243 12.7646C32.1872 13.9274 32.7678 15.3322 32.7662 16.9787V19.3616H33.9577C34.613 19.3616 35.1741 19.5952 35.6412 20.0622C36.1082 20.5293 36.3414 21.09 36.3406 21.7445V32.3727C36.3406 33.028 36.1074 33.5892 35.6412 34.0562C35.1749 34.5233 34.6138 34.7564 33.9577 34.7556H19.6602ZM19.6602 32.3727H33.9577V21.7445H19.6602V32.3727ZM26.809 30.0847C27.4643 30.0847 28.0254 29.8516 28.4925 29.3853C28.9595 28.9191 29.1927 28.3579 29.1919 27.7018C29.1911 27.0457 28.9579 26.4849 28.4925 26.0195C28.027 25.554 27.4658 25.3205 26.809 25.3189C26.1521 25.3173 25.5913 25.5508 25.1266 26.0195C24.662 26.4881 24.4284 27.0489 24.4261 27.7018C24.4237 28.3547 24.6572 28.9159 25.1266 29.3853C25.5961 29.8548 26.1568 30.0879 26.809 30.0847ZM23.2346 19.3616H30.3833V16.9787C30.3833 15.9859 30.0358 15.1419 29.3408 14.4469C28.6458 13.7519 27.8018 13.4044 26.809 13.4044C25.8161 13.4044 24.9721 13.7519 24.2771 14.4469C23.5821 15.1419 23.2346 15.9859 23.2346 16.9787V19.3616Z" fill="white"/>
<defs>
<linearGradient id="paint0_linear_3046_21339" x1="5.5" y1="4" x2="49" y2="49" gradientUnits="userSpaceOnUse">
<stop stop-color="#4FC1F9"/>
<stop offset="1" stop-color="#1B9EE0"/>
</linearGradient>
</defs>
</svg>
