<svg width="28" height="29" viewBox="0 0 28 29" fill="none" xmlns="http://www.w3.org/2000/svg">
<path d="M26.8431 14.5045C26.8431 22.214 22.0111 28.9923 12.8838 28.4554C6.45215 28.077 0.535156 21.6687 0.535156 13.9591C0.535156 6.24959 5.71117 1.08203 13.4207 1.08203C21.1302 1.08203 26.8431 6.79494 26.8431 14.5045Z" fill="#D9D9D9"/>
<path d="M13.7804 0C6.20117 0 0 6.42845 0 14.3459C0 21.5045 5.04362 27.4462 11.6306 28.52V18.4979H8.13042V14.3459H11.6306V11.1818C11.6306 7.58815 13.6839 5.61237 16.8396 5.61237C18.3417 5.61237 19.9126 5.8844 19.9126 5.8844V9.42076H18.1763C16.4675 9.42076 15.9301 10.5232 15.9301 11.6543V14.3459H19.7611L19.1409 18.4979H15.9301V28.52C19.1774 27.9872 22.1343 26.2658 24.2671 23.6665C26.4 21.0673 27.5681 17.7615 27.5608 14.3459C27.5608 6.42845 21.3596 0 13.7804 0Z" fill="#0A66C2"/>
</svg>
