<svg width="28" height="28" viewBox="0 0 28 28" fill="none" xmlns="http://www.w3.org/2000/svg">
<path d="M26.2035 6.99935C25.3052 7.40768 24.3369 7.67602 23.3335 7.80435C24.3602 7.18602 25.1535 6.20602 25.5269 5.02768C24.5585 5.61102 23.4852 6.01935 22.3535 6.25268C21.4319 5.24935 20.1369 4.66602 18.6669 4.66602C15.9252 4.66602 13.6852 6.90602 13.6852 9.67102C13.6852 10.0677 13.7319 10.4527 13.8135 10.8144C9.66021 10.6044 5.96187 8.60935 3.50021 5.58768C3.06854 6.32268 2.82354 7.18602 2.82354 8.09602C2.82354 9.83435 3.69854 11.3743 5.05187 12.2493C4.22354 12.2493 3.45354 12.016 2.77688 11.666V11.701C2.77688 14.1277 4.50354 16.1577 6.79021 16.6127C6.05619 16.8144 5.28525 16.8424 4.53854 16.6944C4.85542 17.6889 5.476 18.5592 6.31306 19.1828C7.15012 19.8064 8.16156 20.152 9.20521 20.171C7.43616 21.5716 5.24322 22.3286 2.98687 22.3177C2.59021 22.3177 2.19354 22.2943 1.79688 22.2477C4.01354 23.671 6.65021 24.4993 9.47354 24.4993C18.6669 24.4993 23.7185 16.8693 23.7185 10.2543C23.7185 10.0327 23.7185 9.82268 23.7069 9.60102C24.6869 8.90102 25.5269 8.01435 26.2035 6.99935Z" fill="white"/>
</svg>
