<svg width="25" height="25" viewBox="0 0 25 25" fill="none" xmlns="http://www.w3.org/2000/svg">
<ellipse cx="12.9616" cy="12.0829" rx="9.22727" ry="8.34848" fill="#D9D9D9"/>
<path d="M12.0834 0C18.757 0 24.1667 5.40971 24.1667 12.0833C24.1667 18.757 18.757 24.1667 12.0834 24.1667C9.94793 24.1703 7.85006 23.6052 6.00544 22.5294L0.00485201 24.1667L1.63852 18.1637C0.561843 16.3185 -0.00372363 14.2197 1.84497e-05 12.0833C1.84497e-05 5.40971 5.40973 0 12.0834 0ZM7.96535 6.40417L7.72368 6.41383C7.56744 6.4246 7.41477 6.46564 7.27419 6.53467C7.14317 6.60899 7.02353 6.70178 6.91894 6.81017C6.77394 6.94671 6.69177 7.06512 6.60356 7.17992C6.15662 7.76101 5.91599 8.47442 5.91964 9.2075C5.92206 9.79958 6.07673 10.376 6.31839 10.9149C6.8126 12.0048 7.62581 13.1587 8.69881 14.2281C8.95739 14.4855 9.21114 14.7441 9.48423 14.9845C10.8175 16.1583 12.4063 17.0048 14.1242 17.4568L14.8106 17.5619C15.0341 17.574 15.2576 17.5571 15.4824 17.5462C15.8342 17.5277 16.1778 17.4324 16.4889 17.2671C16.647 17.1853 16.8015 17.0966 16.9517 17.0012C16.9517 17.0012 17.0029 16.9666 17.1028 16.8925C17.2659 16.7717 17.3662 16.6859 17.5015 16.5445C17.603 16.4398 17.6876 16.3181 17.7553 16.1796C17.8495 15.9826 17.9438 15.6068 17.9824 15.2939C18.0114 15.0546 18.003 14.9241 17.9994 14.8432C17.9945 14.7139 17.887 14.5798 17.7698 14.523L17.0665 14.2076C17.0665 14.2076 16.0153 13.7496 15.3724 13.4572C15.3051 13.4279 15.2331 13.4111 15.1598 13.4077C15.0771 13.399 14.9935 13.4082 14.9147 13.4347C14.8359 13.4612 14.7637 13.5043 14.703 13.5611C14.697 13.5587 14.616 13.6276 13.7424 14.6861C13.6923 14.7535 13.6232 14.8044 13.544 14.8324C13.4648 14.8603 13.3791 14.8641 13.2977 14.8432C13.219 14.8222 13.1418 14.7955 13.0669 14.7634C12.9171 14.7006 12.8651 14.6764 12.7624 14.6329C12.0687 14.3307 11.4266 13.9218 10.8593 13.421C10.7071 13.288 10.5657 13.143 10.4207 13.0029C9.94534 12.5476 9.53105 12.0326 9.18818 11.4707L9.11689 11.3559C9.06646 11.2783 9.02511 11.1952 8.99364 11.1082C8.94773 10.9306 9.06735 10.788 9.06735 10.788C9.06735 10.788 9.36098 10.4666 9.49752 10.2926C9.63044 10.1234 9.74281 9.95908 9.81531 9.84188C9.95789 9.61229 10.0026 9.37667 9.92769 9.19421C9.58935 8.36771 9.23974 7.54564 8.87885 6.728C8.80756 6.56608 8.5961 6.45008 8.40398 6.42712C8.33873 6.41907 8.27348 6.41263 8.20823 6.40779C8.04598 6.39849 7.8833 6.4001 7.72127 6.41263L7.96535 6.40417Z" fill="#0CE21A"/>
</svg>
