<svg width="30" height="21" viewBox="0 0 30 21" fill="none" xmlns="http://www.w3.org/2000/svg">
<circle cx="15.2796" cy="10.8772" r="8.14286" fill="#D9D9D9"/>
<path fill-rule="evenodd" clip-rule="evenodd" d="M29.4 4.5045C29.2596 3.43857 28.8526 2.4253 28.2165 1.5585C27.4283 0.76447 26.3593 0.312416 25.2405 0.3C21.09 4.24683e-07 14.8515 0 14.8515 0C14.8515 0 8.616 4.24683e-07 4.4595 0.3C3.34125 0.312808 2.27287 0.764832 1.485 1.5585C0.844704 2.42364 0.436734 3.43841 0.3 4.506C0.11419 6.10249 0.0140465 7.70779 0 9.315V11.565C0.0140465 13.1722 0.11419 14.7775 0.3 16.374C0.441 17.442 0.846 18.459 1.476 19.332C2.382 20.136 3.546 20.5875 4.7565 20.604C7.131 20.8305 14.853 20.904 14.853 20.904C14.853 20.904 21.0945 20.904 25.245 20.604C26.3645 20.5916 27.4341 20.1389 28.2225 19.344C28.8555 18.4752 29.2612 17.462 29.403 16.3965C29.5888 14.8 29.689 13.1947 29.703 11.5875V9.3135C29.6852 7.70634 29.584 6.10119 29.4 4.5045ZM11.862 14.3355V5.9055L19.962 10.134L11.862 14.3355Z" fill="#EA1414"/>
</svg>
