<svg width="74" height="72" viewBox="0 0 74 72" fill="none" xmlns="http://www.w3.org/2000/svg">
<rect width="73.0854" height="71.8673" rx="13.5669" fill="url(#paint0_linear_3046_26712)"/>
<path d="M33.5838 46.5921C28.0061 46.5921 25.2165 46.5921 23.4845 44.8586C21.7525 43.1251 21.751 40.337 21.751 34.7592V33.2801C21.751 27.7024 21.751 24.9128 23.4845 23.1808C25.218 21.4487 28.0061 21.4473 33.5838 21.4473H38.7607C43.624 21.4473 46.0542 21.4473 47.6916 22.7903C47.9909 23.036 48.2653 23.3104 48.511 23.6097C49.854 25.2486 49.8541 27.6773 49.8541 32.5406M21.751 30.3219H49.8541" stroke="white" stroke-width="2.11984" stroke-linecap="round" stroke-linejoin="round"/>
<path d="M26.9277 25.8848H26.9425M32.8294 25.8848H32.8442" stroke="white" stroke-width="2.82645" stroke-linecap="round" stroke-linejoin="round"/>
<path d="M40.4946 49.5505H38.0215V47.0775C38.0217 46.293 38.3334 45.5406 38.8882 44.986L46.9878 36.8879C47.4039 36.4719 47.9681 36.2383 48.5564 36.2383C49.1447 36.2383 49.709 36.4719 50.125 36.8879L50.6856 37.4485C51.1016 37.8645 51.3352 38.4287 51.3352 39.0171C51.3352 39.6054 51.1016 40.1696 50.6856 40.5856L42.586 48.6838C42.0314 49.2386 41.2791 49.5504 40.4946 49.5505Z" stroke="white" stroke-width="2.11984" stroke-linejoin="round"/>
<defs>
<linearGradient id="paint0_linear_3046_26712" x1="0" y1="0" x2="71.8572" y2="73.0751" gradientUnits="userSpaceOnUse">
<stop stop-color="#A745FA"/>
<stop offset="1" stop-color="#7432AD"/>
</linearGradient>
</defs>
</svg>
