<svg width="70" height="69" viewBox="0 0 70 69" fill="none" xmlns="http://www.w3.org/2000/svg">
<rect width="70" height="68.8333" rx="12.9942" fill="url(#paint0_linear_3046_26763)"/>
<path fill-rule="evenodd" clip-rule="evenodd" d="M32.4849 19.9659C32.1738 19.9659 31.8658 20.0272 31.5784 20.1462C31.291 20.2652 31.0299 20.4397 30.81 20.6597C30.59 20.8796 30.4155 21.1408 30.2965 21.4281C30.1774 21.7155 30.1162 22.0236 30.1162 22.3346C30.1162 22.6457 30.1774 22.9537 30.2965 23.2411C30.4155 23.5285 30.59 23.7896 30.81 24.0096C31.0299 24.2295 31.291 24.404 31.5784 24.5231C31.8658 24.6421 32.1738 24.7034 32.4849 24.7034C33.1131 24.7034 33.7156 24.4538 34.1599 24.0096C34.6041 23.5653 34.8536 22.9629 34.8536 22.3346C34.8536 21.7064 34.6041 21.1039 34.1599 20.6597C33.7156 20.2155 33.1131 19.9659 32.4849 19.9659ZM28.0858 22.3346C28.0858 21.1679 28.5493 20.049 29.3743 19.224C30.1993 18.399 31.3182 17.9355 32.4849 17.9355C33.6516 17.9355 34.7705 18.399 35.5955 19.224C36.4205 20.049 36.884 21.1679 36.884 22.3346C36.884 23.5013 36.4205 24.6203 35.5955 25.4452C34.7705 26.2702 33.6516 26.7337 32.4849 26.7337C31.3182 26.7337 30.1993 26.2702 29.3743 25.4452C28.5493 24.6203 28.0858 23.5013 28.0858 22.3346ZM32.4849 29.4679C32.0957 29.4634 31.7067 29.487 31.3208 29.5383L30.1135 29.7413C27.3887 30.2002 25.3787 32.5865 25.3787 35.3965C25.3795 36.1167 25.2034 36.8261 24.8659 37.4624C24.5284 38.0987 24.0398 38.6424 23.4431 39.0457L23.3078 39.1391C22.963 39.3718 22.5882 39.5567 22.1938 39.6886L20.6277 40.2165C20.3725 40.3027 20.0934 40.2839 19.852 40.1644C19.6106 40.0448 19.4266 39.8342 19.3405 39.579C19.2543 39.3238 19.2731 39.0448 19.3926 38.8034C19.5122 38.562 19.7227 38.3779 19.978 38.2918L21.5468 37.7639C21.7688 37.689 21.9772 37.5861 22.1721 37.4553L22.3102 37.3619C22.6308 37.1442 22.8931 36.8512 23.0741 36.5085C23.2551 36.1659 23.3493 35.784 23.3484 35.3965C23.3484 31.6106 26.0595 28.3647 29.7751 27.7394L30.9797 27.5364C31.4781 27.4639 31.9814 27.4313 32.4849 27.4389C32.9884 27.4313 33.4917 27.4639 33.9901 27.5364L35.1947 27.7394C38.9116 28.3647 41.6215 31.6106 41.6215 35.3965C41.6215 36.1897 42.014 36.926 42.661 37.3619L42.7977 37.4553C42.9935 37.5861 43.2024 37.689 43.4244 37.7639L44.9918 38.2918C45.2471 38.3779 45.4576 38.562 45.5772 38.8034C45.6967 39.0448 45.7155 39.3238 45.6293 39.579C45.5432 39.8342 45.3592 40.0448 45.1178 40.1644C44.8764 40.2839 44.5974 40.3027 44.3421 40.2165L42.776 39.6886C42.3821 39.5565 42.0078 39.3717 41.6634 39.1391L41.5267 39.0457C40.93 38.6424 40.4414 38.0987 40.1039 37.4624C39.7665 36.8261 39.5904 36.1167 39.5911 35.3965C39.5911 32.5865 37.5811 30.2002 34.8577 29.7413L33.6503 29.5383C33.2645 29.4874 32.8754 29.4643 32.4863 29.4693M28.2902 37.2928C28.3702 37.1862 28.4704 37.0963 28.5851 37.0284C28.6998 36.9605 28.8268 36.9158 28.9588 36.897C29.0908 36.8781 29.2252 36.8855 29.3543 36.9185C29.4834 36.9516 29.6048 37.0098 29.7115 37.0898C29.8181 37.1698 29.908 37.27 29.9759 37.3847C30.0438 37.4994 30.0885 37.6264 30.1073 37.7584C30.1262 37.8904 30.1188 38.0247 30.0858 38.1539C30.0527 38.283 29.9945 38.4044 29.9145 38.5111L28.6638 40.18L28.634 40.2192C28.491 40.4169 28.3373 40.6067 28.1738 40.7877C27.7924 41.1874 27.3268 41.4972 26.8108 41.6946C26.601 41.7731 26.383 41.8273 26.1069 41.8977L26.0595 41.9085L23.6313 42.5162C23.3329 42.5923 23.0725 42.7745 22.8989 43.0288C22.7252 43.283 22.6502 43.5919 22.6879 43.8975C22.7256 44.203 22.8734 44.4844 23.1036 44.6889C23.3338 44.8933 23.6306 45.0068 23.9385 45.0082H24.8643C26.957 45.0082 28.9927 44.33 30.6671 43.0739L33.2294 41.1491C33.336 41.0692 33.4574 41.011 33.5865 40.9779C33.7157 40.9448 33.8501 40.9375 33.982 40.9563C34.114 40.9752 34.241 41.0198 34.3557 41.0878C34.4704 41.1557 34.5706 41.2455 34.6506 41.3522C34.7306 41.4588 34.7888 41.5802 34.8219 41.7093C34.855 41.8385 34.8623 41.9729 34.8434 42.1048C34.8246 42.2368 34.7799 42.3638 34.712 42.4785C34.6441 42.5932 34.5542 42.6934 34.4476 42.7734L33.2239 43.6911L33.8885 43.9415C34.6114 44.2123 34.9376 44.3341 35.2651 44.4369C36.2507 44.7444 37.2704 44.9294 38.3012 44.9878C38.6436 45.0068 38.9915 45.0068 39.763 45.0068H41.034C41.3418 45.0051 41.6384 44.8914 41.8684 44.6868C42.0983 44.4823 42.2459 44.2009 42.2834 43.8954C42.3209 43.59 42.2458 43.2813 42.0721 43.0272C41.8985 42.773 41.6381 42.5909 41.3399 42.5149L39.3461 42.0154L39.2351 41.9884C38.5908 41.8273 38.0832 41.7014 37.6298 41.4388C37.494 41.3598 37.363 41.2731 37.2373 41.1789C36.8204 40.8622 36.5063 40.4439 36.1097 39.912L36.0407 39.8213L35.0567 38.5097C34.9767 38.403 34.9185 38.2817 34.8854 38.1525C34.8523 38.0234 34.845 37.889 34.8638 37.757C34.8827 37.6251 34.9274 37.4981 34.9953 37.3834C35.0632 37.2687 35.1531 37.1684 35.2597 37.0885C35.3664 37.0085 35.4877 36.9503 35.6169 36.9172C35.746 36.8841 35.8804 36.8768 36.0124 36.8956C36.1444 36.9145 36.2713 36.9591 36.386 37.0271C36.5007 37.095 36.601 37.1848 36.6809 37.2915L37.665 38.6031C38.1631 39.2677 38.3025 39.4396 38.4649 39.5628C38.5218 39.6043 38.5814 39.6435 38.6436 39.6805C38.8196 39.782 39.0321 39.8443 39.8388 40.046L41.8326 40.5441C42.6125 40.7395 43.2942 41.2133 43.7491 41.8762C44.2041 42.5391 44.4011 43.3455 44.3029 44.1436C44.2047 44.9416 43.8183 45.6762 43.2162 46.2092C42.6142 46.7421 41.838 47.0366 41.034 47.0371H39.7305C39.001 47.0371 38.5935 47.0371 38.1875 47.0141C36.9894 46.9464 35.8042 46.7313 34.6587 46.3739C34.2716 46.2521 33.8913 46.1099 33.2077 45.8541L31.2694 45.1273C29.3649 46.373 27.1387 47.0366 24.863 47.0371H23.9372C23.1331 47.0366 22.357 46.7421 21.755 46.2092C21.1529 45.6762 20.7664 44.9416 20.6683 44.1436C20.5701 43.3455 20.7671 42.5391 21.222 41.8762C21.677 41.2133 22.3586 40.7395 23.1386 40.5441L25.5655 39.9377C25.9107 39.8511 26.004 39.8267 26.0853 39.7956C26.3194 39.7062 26.5319 39.5655 26.7052 39.3841C26.7647 39.3205 26.8243 39.246 27.0382 38.9604L28.2902 37.2928Z" fill="white"/>
<defs>
<linearGradient id="paint0_linear_3046_26763" x1="0" y1="0" x2="68.8236" y2="69.9901" gradientUnits="userSpaceOnUse">
<stop stop-color="#01CF64"/>
<stop offset="1" stop-color="#079843"/>
</linearGradient>
</defs>
</svg>
