<svg width="70" height="69" viewBox="0 0 70 69" fill="none" xmlns="http://www.w3.org/2000/svg">
<rect width="70" height="68.8333" rx="12.9942" fill="url(#paint0_linear_3046_26738)"/>
<path d="M44.6667 23.2549V39.254C44.6664 40.4459 44.2729 41.6043 43.5472 42.5497C42.8215 43.495 41.8041 44.1746 40.6529 44.4828C39.5016 44.7911 38.2808 44.7109 37.1798 44.2546C36.0788 43.7984 35.1591 42.9916 34.5633 41.9594C33.9675 40.9272 33.7289 39.7273 33.8846 38.5457C34.0402 37.3641 34.5814 36.2668 35.4242 35.4242C36.267 34.5815 37.3643 34.0404 38.5459 33.8849C39.7275 33.7293 40.9274 33.968 41.9596 34.5639V28.6705L28.4239 30.9256V40.6076C28.4239 40.6888 28.4172 40.7673 28.4036 40.8431C28.5008 41.884 28.251 42.9278 27.6931 43.8118C27.1352 44.6959 26.3005 45.3706 25.3192 45.7308C24.3378 46.091 23.2649 46.1166 22.2675 45.8034C21.2701 45.4902 20.4043 44.856 19.805 43.9994C19.2057 43.1429 18.9066 42.1122 18.9541 41.0679C19.0017 40.0236 19.3934 39.0243 20.0681 38.2258C20.7428 37.4274 21.6627 36.8745 22.6844 36.6533C23.7061 36.4321 24.7723 36.5551 25.7168 37.0031V25.5113C25.7167 24.8705 25.944 24.2504 26.3582 23.7614C26.7723 23.2724 27.3465 22.9462 27.9786 22.8407L41.5143 20.5857C41.902 20.521 42.2992 20.5416 42.6782 20.6459C43.0572 20.7503 43.4089 20.9359 43.7089 21.1899C44.0089 21.444 44.25 21.7603 44.4154 22.1169C44.5808 22.4735 44.6666 22.8618 44.6667 23.2549ZM23.6865 39.254C23.148 39.254 22.6316 39.468 22.2508 39.8487C21.87 40.2295 21.6561 40.7459 21.6561 41.2844C21.6561 41.8229 21.87 42.3393 22.2508 42.7201C22.6316 43.1008 23.148 43.3147 23.6865 43.3147C24.225 43.3147 24.7414 43.1008 25.1222 42.7201C25.5029 42.3393 25.7168 41.8229 25.7168 41.2844C25.7168 40.7459 25.5029 40.2295 25.1222 39.8487C24.7414 39.468 24.225 39.254 23.6865 39.254ZM39.2524 36.5469C38.5345 36.5469 37.8459 36.8321 37.3382 37.3398C36.8305 37.8475 36.5453 38.5361 36.5453 39.254C36.5453 39.972 36.8305 40.6606 37.3382 41.1683C37.8459 41.676 38.5345 41.9612 39.2524 41.9612C39.9704 41.9612 40.659 41.676 41.1667 41.1683C41.6744 40.6606 41.9596 39.972 41.9596 39.254C41.9596 38.5361 41.6744 37.8475 41.1667 37.3398C40.659 36.8321 39.9704 36.5469 39.2524 36.5469ZM41.9596 23.2549L28.4239 25.5113V28.1819L41.9596 25.9255V23.2549Z" fill="white"/>
<defs>
<linearGradient id="paint0_linear_3046_26738" x1="0" y1="0" x2="68.8236" y2="69.9901" gradientUnits="userSpaceOnUse">
<stop stop-color="#7CAEFF"/>
<stop offset="1" stop-color="#1D73D6"/>
</linearGradient>
</defs>
</svg>
