<svg width="70" height="70" viewBox="0 0 70 70" fill="none" xmlns="http://www.w3.org/2000/svg">
<circle cx="35" cy="35" r="35" fill="#1B9EE0"/>
<path d="M48.6254 41.521V45.6972C48.6269 46.0849 48.5475 46.4687 48.3922 46.8239C48.2369 47.1792 48.0091 47.498 47.7234 47.7601C47.4377 48.0222 47.1004 48.2218 46.7332 48.346C46.3659 48.4702 45.9768 48.5163 45.5906 48.4814C41.307 48.016 37.1922 46.5522 33.5769 44.2077C30.2134 42.0704 27.3618 39.2187 25.2244 35.8552C22.8718 32.2236 21.4077 28.0888 20.9508 23.7859C20.916 23.4009 20.9617 23.0129 21.0851 22.6466C21.2085 22.2803 21.4068 21.9437 21.6673 21.6582C21.9279 21.3728 22.2451 21.1447 22.5987 20.9885C22.9523 20.8323 23.3345 20.7515 23.721 20.7511H27.8972C28.5728 20.7445 29.2278 20.9837 29.74 21.4242C30.2523 21.8648 30.5869 22.4765 30.6814 23.1455C30.8577 24.482 31.1846 25.7942 31.6559 27.0572C31.8432 27.5555 31.8837 28.097 31.7727 28.6176C31.6617 29.1382 31.4037 29.6161 31.0294 29.9945L29.2615 31.7625C31.2432 35.2476 34.1288 38.1333 37.614 40.115L39.3819 38.347C39.7604 37.9728 40.2383 37.7148 40.7589 37.6038C41.2795 37.4928 41.821 37.5333 42.3192 37.7206C43.5822 38.1919 44.8945 38.5188 46.231 38.6951C46.9072 38.7905 47.5248 39.1311 47.9663 39.6521C48.4077 40.1732 48.6423 40.8383 48.6254 41.521Z" stroke="white" stroke-width="1.84106" stroke-linecap="round" stroke-linejoin="round"/>
</svg>
