<svg width="217" height="196" viewBox="0 0 217 196" fill="none" xmlns="http://www.w3.org/2000/svg">
<g opacity="0.86" filter="url(#filter0_d_3046_20760)">
<rect x="31.8594" y="8.80371" width="175.484" height="150.251" rx="32" transform="rotate(7.95312 31.8594 8.80371)" fill="url(#paint0_linear_3046_20760)"/>
<g filter="url(#filter1_d_3046_20760)">
<path d="M102.496 126.593L77.3211 136.487C76.203 136.959 75.1022 137.055 74.0185 136.774C72.9347 136.494 72.0357 135.962 71.3213 135.177C70.6069 134.392 70.1031 133.478 69.81 132.435C69.5169 131.393 69.6104 130.296 70.0905 129.143L80.6006 104.099L63.397 83.1179C62.6225 82.1332 62.2123 81.0916 62.1664 79.993C62.1206 78.8944 62.3653 77.872 62.9007 76.9259C63.436 75.9798 64.1274 75.246 64.9749 74.7244C65.8224 74.2029 66.901 73.9614 68.2109 74L95.2741 76.2171L109.785 53.4201C110.432 52.3946 111.284 51.6884 112.343 51.3014C113.401 50.9144 114.432 50.8068 115.436 50.9787C116.441 51.1505 117.377 51.5949 118.247 52.3118C119.116 53.0287 119.686 53.9782 119.955 55.1605L126.059 81.4854L152.319 88.3939C153.57 88.7974 154.507 89.3838 155.13 90.1532C155.753 90.9226 156.161 91.8445 156.354 92.9191C156.548 93.9937 156.44 95.0414 156.031 96.0623C155.623 97.0831 154.888 97.9269 153.827 98.5937L130.626 112.66L132.21 139.774C132.28 141.017 132.003 142.083 131.379 142.972C130.756 143.861 129.977 144.556 129.043 145.055C128.109 145.554 127.084 145.757 125.968 145.665C124.852 145.572 123.845 145.116 122.948 144.296L102.496 126.593Z" fill="#F9E618"/>
<path d="M115.226 52.2108C115.993 52.3422 116.732 52.6832 117.451 53.2763C118.091 53.8036 118.523 54.5034 118.736 55.438L118.737 55.4432L124.841 81.768L125.011 82.5026L125.74 82.6947L151.956 89.5897C153.039 89.9419 153.733 90.4148 154.158 90.9395C154.635 91.5288 154.964 92.2515 155.124 93.1408C155.276 93.9829 155.193 94.7933 154.871 95.5981C154.576 96.3353 154.039 96.9806 153.179 97.5249L129.978 111.591L129.334 111.981L129.378 112.733L130.961 139.844L130.961 139.844C131.018 140.85 130.796 141.628 130.357 142.255C129.843 142.987 129.211 143.548 128.454 143.952C127.744 144.331 126.961 144.493 126.071 144.419C125.255 144.351 124.503 144.023 123.792 143.373L123.78 143.362L123.767 143.351L103.314 125.648L102.743 125.153L102.039 125.43L76.8635 135.324L76.8359 135.335C75.948 135.71 75.1271 135.77 74.3316 135.565C73.4698 135.342 72.7871 134.93 72.2455 134.335C71.6648 133.697 71.2551 132.956 71.0136 132.097C70.808 131.366 70.8545 130.557 71.2438 129.623L81.753 104.583L82.0442 103.888L81.5672 103.306L64.3744 82.3382C63.7423 81.5322 63.4488 80.7394 63.4154 79.9409C63.3792 79.0727 63.5696 78.2818 63.9886 77.5413C64.4297 76.7617 64.9787 76.1899 65.6299 75.7891C66.211 75.4315 67.0256 75.2177 68.1605 75.2493L95.1722 77.4634L95.9236 77.5246L96.3287 76.8885L110.839 54.0915L110.842 54.0871C111.353 53.2764 111.994 52.7602 112.772 52.4755C113.648 52.1553 114.459 52.0796 115.226 52.2108Z" stroke="black" stroke-width="2.5"/>
</g>
</g>
<defs>
<filter id="filter0_d_3046_20760" x="-4.11635" y="-4.11629" width="224.959" height="203.459" filterUnits="userSpaceOnUse" color-interpolation-filters="sRGB">
<feFlood flood-opacity="0" result="BackgroundImageFix"/>
<feColorMatrix in="SourceAlpha" type="matrix" values="0 0 0 0 0 0 0 0 0 0 0 0 0 0 0 0 0 0 127 0" result="hardAlpha"/>
<feOffset dy="2.26667"/>
<feGaussianBlur stdDeviation="7.59333"/>
<feComposite in2="hardAlpha" operator="out"/>
<feColorMatrix type="matrix" values="0 0 0 0 0.719545 0 0 0 0 0.893246 0 0 0 0 0.980769 0 0 0 1 0"/>
<feBlend mode="normal" in2="BackgroundImageFix" result="effect1_dropShadow_3046_20760"/>
<feBlend mode="normal" in="SourceGraphic" in2="effect1_dropShadow_3046_20760" result="shape"/>
</filter>
<filter id="filter1_d_3046_20760" x="46.1602" y="50.8994" width="126.289" height="126.787" filterUnits="userSpaceOnUse" color-interpolation-filters="sRGB">
<feFlood flood-opacity="0" result="BackgroundImageFix"/>
<feColorMatrix in="SourceAlpha" type="matrix" values="0 0 0 0 0 0 0 0 0 0 0 0 0 0 0 0 0 0 127 0" result="hardAlpha"/>
<feOffset dy="16"/>
<feGaussianBlur stdDeviation="8"/>
<feComposite in2="hardAlpha" operator="out"/>
<feColorMatrix type="matrix" values="0 0 0 0 0 0 0 0 0 0 0 0 0 0 0 0 0 0 0.25 0"/>
<feBlend mode="normal" in2="BackgroundImageFix" result="effect1_dropShadow_3046_20760"/>
<feBlend mode="normal" in="SourceGraphic" in2="effect1_dropShadow_3046_20760" result="shape"/>
</filter>
<linearGradient id="paint0_linear_3046_20760" x1="53.4027" y1="13.2228" x2="168.853" y2="163.474" gradientUnits="userSpaceOnUse">
<stop stop-color="#2BF620"/>
<stop offset="1" stop-color="#1FDA16"/>
</linearGradient>
</defs>
</svg>
