<svg width="161" height="136" viewBox="0 0 161 136" fill="none" xmlns="http://www.w3.org/2000/svg">
<g opacity="0.85">
<rect width="160.916" height="136" rx="32" fill="url(#paint0_linear_3046_20762)"/>
<path d="M120.878 43.5442C120.823 42.605 120.425 41.7187 119.759 41.0534C119.094 40.3881 118.208 39.9899 117.268 39.9343C100.205 38.9317 86.4544 44.2137 80.4838 54.0729C76.5952 60.4792 76.4607 68.2211 80.0161 75.6299C78.2855 77.8375 76.9543 80.3308 76.0827 82.9971L72.0275 78.942C74.3306 73.5703 74.0872 68.0161 71.2588 63.346C66.7808 55.9435 56.5821 51.9845 43.981 52.7116C43.0412 52.7673 42.1545 53.1659 41.4891 53.8319C40.8237 54.4979 40.4259 55.3849 40.3711 56.3247C39.6407 68.9258 43.5998 79.1245 50.9958 83.6025C53.5042 85.1314 56.3864 85.9373 59.3239 85.9312C61.8285 85.911 64.3026 85.3802 66.595 84.3713L74.8751 92.6642V100.031C74.8751 101.051 75.2801 102.028 76.0009 102.749C76.7218 103.47 77.6994 103.875 78.7189 103.875C79.7383 103.875 80.716 103.47 81.4368 102.749C82.1577 102.028 82.5626 101.051 82.5626 100.031V90.5853C82.5547 87.1494 83.6172 83.7963 85.6024 80.992C88.8182 82.5154 92.3262 83.323 95.8844 83.3591C99.7129 83.3679 103.469 82.3193 106.74 80.3289C116.596 74.3583 121.884 60.6073 120.878 43.5442ZM54.9773 77.0265C50.7524 74.464 48.1931 68.2307 47.9849 60.3286C55.887 60.5368 62.1235 63.0961 64.6828 67.321C65.6836 68.949 66.0942 70.8716 65.8455 72.7663L62.2164 69.1244C61.4943 68.4023 60.5149 67.9966 59.4937 67.9966C58.4725 67.9966 57.4932 68.4023 56.7711 69.1244C56.049 69.8465 55.6433 70.8259 55.6433 71.847C55.6433 72.8682 56.049 73.8476 56.7711 74.5697L60.4034 78.202C58.5138 78.4354 56.6009 78.0209 54.9773 77.0265ZM102.758 73.7657C99.3438 75.8317 95.3911 76.2225 91.2879 74.9701L103.22 63.0417C103.942 62.3196 104.347 61.3402 104.347 60.319C104.347 59.2978 103.942 58.3184 103.22 57.5963C102.497 56.8743 101.518 56.4686 100.497 56.4686C99.4757 56.4686 98.4964 56.8743 97.7743 57.5963L85.8426 69.5248C84.603 65.4376 84.9938 61.4689 87.047 58.0704C91.115 51.3438 100.708 47.5001 113.095 47.5001H113.313C113.357 59.9923 109.514 69.6593 102.758 73.7657Z" fill="white" stroke="black" stroke-width="2.5"/>
</g>
<defs>
<linearGradient id="paint0_linear_3046_20762" x1="28" y1="-4.66924e-07" x2="148" y2="142" gradientUnits="userSpaceOnUse">
<stop stop-color="#6A3BF8"/>
<stop offset="1" stop-color="#531BF8"/>
</linearGradient>
</defs>
</svg>
