<svg width="159" height="136" viewBox="0 0 159 136" fill="none" xmlns="http://www.w3.org/2000/svg">
<g opacity="0.85">
<rect width="158.84" height="136" rx="32" fill="url(#paint0_linear_3046_20765)"/>
<path d="M99.3252 89.5381C101.83 88.6659 104.458 89.1004 106.502 90.46L106.503 90.4609C108.354 91.6908 109.714 93.6701 110.055 96.1143V96.1152C110.108 96.499 110.135 96.8783 110.135 97.2529C110.135 101.252 107.184 104.742 103.11 105.311L89.0146 107.276C89.2707 106.617 89.4527 105.926 89.5518 105.215C89.8303 103.222 89.4597 101.232 88.4834 99.4727C87.6476 97.966 86.4315 96.7452 84.9414 95.9111L94.2988 91.7441L98.6699 89.7979L98.6709 89.7969C98.7789 89.7487 98.8873 89.7032 98.9961 89.6602L99.3252 89.5381Z" fill="white" stroke="black" stroke-width="2.5"/>
<mask id="path-3-inside-1_3046_20765" fill="white">
<path d="M86.4214 103.749V103.745C86.4214 103.74 86.4214 103.734 86.4207 103.73C86.4207 103.715 86.4201 103.7 86.4188 103.685C86.4175 103.646 86.4155 103.606 86.4129 103.567C86.4122 103.548 86.4109 103.528 86.4089 103.508C86.4083 103.498 86.4076 103.487 86.407 103.477C86.405 103.449 86.4024 103.421 86.3998 103.394C86.3939 103.326 86.386 103.258 86.3775 103.19C86.3769 103.182 86.3755 103.174 86.3742 103.166C86.3716 103.149 86.3696 103.132 86.3677 103.115C86.367 103.112 86.367 103.11 86.3663 103.107C86.3643 103.093 86.3624 103.079 86.3604 103.066C86.3552 103.032 86.3499 102.998 86.3447 102.965C86.3388 102.928 86.3322 102.891 86.325 102.853C86.3185 102.819 86.3119 102.784 86.3047 102.749C86.2982 102.715 86.291 102.681 86.2838 102.648C86.2746 102.607 86.2648 102.565 86.255 102.524C86.2484 102.499 86.2425 102.474 86.236 102.449C86.2274 102.417 86.2189 102.384 86.2098 102.351C86.1836 102.254 86.1541 102.158 86.1226 102.064C86.1089 102.02 86.0938 101.977 86.0788 101.934C86.0774 101.931 86.0761 101.926 86.0742 101.922C86.0571 101.875 86.0395 101.828 86.0218 101.781C86.0218 101.78 86.0211 101.779 86.0205 101.777L85.9812 101.679C85.9648 101.638 85.9478 101.597 85.9294 101.557C85.9203 101.536 85.9117 101.516 85.9026 101.496C85.881 101.446 85.858 101.397 85.8338 101.348C85.8174 101.312 85.8004 101.278 85.7827 101.243C85.767 101.211 85.7506 101.179 85.7342 101.148C85.7133 101.108 85.6917 101.069 85.6694 101.029C85.6674 101.025 85.6648 101.02 85.6622 101.016C85.6563 101.004 85.6497 100.993 85.6432 100.983C85.6209 100.943 85.598 100.904 85.5744 100.864C85.5482 100.82 85.5214 100.777 85.4945 100.734C85.4939 100.733 85.4932 100.732 85.4925 100.731C85.4853 100.719 85.4775 100.707 85.4696 100.696C85.4454 100.658 85.4205 100.62 85.3949 100.583C85.389 100.573 85.3825 100.565 85.3766 100.556C85.3471 100.512 85.3163 100.468 85.2849 100.425C85.2587 100.389 85.2325 100.353 85.2056 100.318C85.1788 100.283 85.1513 100.247 85.1238 100.212C85.0963 100.178 85.0681 100.143 85.0399 100.109C85.0255 100.092 85.0111 100.075 84.9967 100.058C84.9823 100.041 84.9679 100.024 84.9535 100.007C84.9063 99.9531 84.8585 99.9001 84.81 99.8477C84.7858 99.8215 84.7609 99.7959 84.736 99.7704C84.7131 99.7468 84.6895 99.7225 84.6659 99.699C84.6168 99.6498 84.567 99.602 84.5166 99.5549C84.4871 99.5274 84.457 99.4998 84.4262 99.4723C84.3993 99.4481 84.3725 99.4245 84.345 99.4009C84.3234 99.3826 84.3017 99.3636 84.2801 99.3459C84.2585 99.3276 84.2369 99.3099 84.2146 99.2916C84.1793 99.2627 84.1426 99.2339 84.1059 99.2058C84.102 99.2018 84.098 99.1992 84.0941 99.1959C84.0797 99.1848 84.0653 99.1737 84.0509 99.1638C84.0325 99.1494 84.0142 99.1357 83.9959 99.1219C83.9625 99.0977 83.9291 99.0734 83.8956 99.0499C83.8649 99.0276 83.8341 99.006 83.8026 98.985C83.802 98.9844 83.8013 98.9837 83.8007 98.9831C83.7699 98.9627 83.7391 98.9418 83.7077 98.9215C83.6762 98.9005 83.6435 98.8802 83.6114 98.8599C83.5806 98.8409 83.5505 98.8219 83.5197 98.8036C83.4889 98.7852 83.4581 98.7669 83.4267 98.7492C83.3775 98.7204 83.3284 98.6929 83.2793 98.6667C83.261 98.6569 83.2426 98.647 83.2249 98.6379C83.185 98.6163 83.1444 98.596 83.1038 98.5756C83.0821 98.5652 83.0605 98.554 83.0383 98.5436C83.0153 98.5324 82.9931 98.5213 82.9695 98.5108C82.9361 98.4951 82.902 98.4794 82.868 98.4643L81.9176 98.0412H81.9169L79.5026 96.9657H79.5019L77.0876 95.8901L67.1787 91.4768L65.2137 90.6017L60.8442 88.6557C60.5947 88.5443 60.3432 88.4448 60.0903 88.357C57.1965 87.3496 54.1619 87.8559 51.8111 89.4194H51.8105C49.6765 90.8375 48.1051 93.1254 47.7121 95.9425C47.6506 96.3827 47.6211 96.8202 47.6211 97.2532C47.6211 101.867 51.0212 105.893 55.7221 106.549L79.5995 109.88C80.6789 110.031 81.7309 109.884 82.6734 109.502C82.7631 109.466 82.8522 109.428 82.94 109.387H82.9407C83.035 109.344 83.1273 109.298 83.2184 109.25C83.2485 109.233 83.2793 109.217 83.3094 109.2C83.35 109.178 83.39 109.155 83.4299 109.132C83.5361 109.071 83.6409 109.007 83.743 108.938C83.8446 108.871 83.9448 108.801 84.0417 108.727C84.0673 108.708 84.0921 108.689 84.1164 108.669C84.1282 108.659 84.1406 108.65 84.1524 108.641C84.2028 108.601 84.2526 108.56 84.3017 108.519C84.3345 108.491 84.3672 108.463 84.4 108.434C84.402 108.433 84.4039 108.431 84.4059 108.429C84.4216 108.414 84.438 108.4 84.4544 108.386C84.5041 108.34 84.5539 108.295 84.6024 108.247C84.6463 108.204 84.6895 108.161 84.7321 108.118C84.7537 108.095 84.776 108.072 84.7969 108.05C84.8179 108.027 84.8388 108.004 84.8591 107.982C84.9017 107.937 84.9423 107.89 84.9816 107.844C85.0019 107.821 85.0216 107.797 85.0412 107.773C85.0609 107.75 85.0805 107.725 85.1002 107.702C85.1198 107.678 85.1388 107.654 85.1578 107.629C85.1768 107.605 85.1958 107.58 85.2142 107.556C85.2404 107.522 85.2659 107.487 85.2908 107.452C85.296 107.446 85.3006 107.44 85.3046 107.433C85.3308 107.397 85.3563 107.36 85.3818 107.323C85.3976 107.3 85.4133 107.276 85.429 107.252C85.4637 107.201 85.4971 107.149 85.5299 107.096C85.5403 107.078 85.5508 107.061 85.562 107.044C85.5698 107.03 85.5783 107.016 85.5862 107.002C85.6 106.98 85.6131 106.958 85.6255 106.935C85.6589 106.878 85.691 106.821 85.7211 106.762C85.7342 106.738 85.7473 106.713 85.7598 106.688C85.7807 106.649 85.801 106.609 85.82 106.569C85.8253 106.559 85.8305 106.548 85.8351 106.538C85.8384 106.533 85.841 106.527 85.843 106.521C85.8436 106.519 85.8443 106.519 85.8443 106.518C85.8469 106.513 85.8489 106.508 85.8508 106.503C85.8659 106.472 85.8803 106.442 85.8941 106.411C85.9032 106.39 85.913 106.369 85.9222 106.348C85.9353 106.319 85.9478 106.29 85.9596 106.261C85.9694 106.237 85.9785 106.214 85.9884 106.19C85.993 106.18 85.9975 106.168 86.0015 106.157C86.0349 106.074 86.0663 105.99 86.0951 105.904C86.1076 105.869 86.1194 105.833 86.1305 105.798C86.1397 105.771 86.1482 105.746 86.1561 105.72C86.1639 105.694 86.1718 105.668 86.179 105.642C86.1809 105.638 86.1816 105.634 86.1823 105.63C86.1895 105.605 86.1967 105.581 86.2032 105.556C86.2098 105.534 86.2157 105.513 86.2216 105.492C86.2255 105.476 86.2294 105.46 86.234 105.443C86.2425 105.412 86.2497 105.38 86.2576 105.349C86.2648 105.318 86.2726 105.286 86.2792 105.254C86.2903 105.207 86.3002 105.158 86.3093 105.111C86.3191 105.063 86.3277 105.014 86.3362 104.966C86.3414 104.936 86.346 104.907 86.3506 104.878C86.3565 104.842 86.3617 104.807 86.367 104.771C86.4056 104.492 86.4246 104.215 86.4246 103.939C86.4246 103.903 86.4246 103.866 86.4233 103.829C86.4233 103.803 86.4226 103.776 86.4213 103.749H86.4214Z"/>
</mask>
<path d="M86.4214 103.749V103.745C86.4214 103.74 86.4214 103.734 86.4207 103.73C86.4207 103.715 86.4201 103.7 86.4188 103.685C86.4175 103.646 86.4155 103.606 86.4129 103.567C86.4122 103.548 86.4109 103.528 86.4089 103.508C86.4083 103.498 86.4076 103.487 86.407 103.477C86.405 103.449 86.4024 103.421 86.3998 103.394C86.3939 103.326 86.386 103.258 86.3775 103.19C86.3769 103.182 86.3755 103.174 86.3742 103.166C86.3716 103.149 86.3696 103.132 86.3677 103.115C86.367 103.112 86.367 103.11 86.3663 103.107C86.3643 103.093 86.3624 103.079 86.3604 103.066C86.3552 103.032 86.3499 102.998 86.3447 102.965C86.3388 102.928 86.3322 102.891 86.325 102.853C86.3185 102.819 86.3119 102.784 86.3047 102.749C86.2982 102.715 86.291 102.681 86.2838 102.648C86.2746 102.607 86.2648 102.565 86.255 102.524C86.2484 102.499 86.2425 102.474 86.236 102.449C86.2274 102.417 86.2189 102.384 86.2098 102.351C86.1836 102.254 86.1541 102.158 86.1226 102.064C86.1089 102.02 86.0938 101.977 86.0788 101.934C86.0774 101.931 86.0761 101.926 86.0742 101.922C86.0571 101.875 86.0395 101.828 86.0218 101.781C86.0218 101.78 86.0211 101.779 86.0205 101.777L85.9812 101.679C85.9648 101.638 85.9478 101.597 85.9294 101.557C85.9203 101.536 85.9117 101.516 85.9026 101.496C85.881 101.446 85.858 101.397 85.8338 101.348C85.8174 101.312 85.8004 101.278 85.7827 101.243C85.767 101.211 85.7506 101.179 85.7342 101.148C85.7133 101.108 85.6917 101.069 85.6694 101.029C85.6674 101.025 85.6648 101.02 85.6622 101.016C85.6563 101.004 85.6497 100.993 85.6432 100.983C85.6209 100.943 85.598 100.904 85.5744 100.864C85.5482 100.82 85.5214 100.777 85.4945 100.734C85.4939 100.733 85.4932 100.732 85.4925 100.731C85.4853 100.719 85.4775 100.707 85.4696 100.696C85.4454 100.658 85.4205 100.62 85.3949 100.583C85.389 100.573 85.3825 100.565 85.3766 100.556C85.3471 100.512 85.3163 100.468 85.2849 100.425C85.2587 100.389 85.2325 100.353 85.2056 100.318C85.1788 100.283 85.1513 100.247 85.1238 100.212C85.0963 100.178 85.0681 100.143 85.0399 100.109C85.0255 100.092 85.0111 100.075 84.9967 100.058C84.9823 100.041 84.9679 100.024 84.9535 100.007C84.9063 99.9531 84.8585 99.9001 84.81 99.8477C84.7858 99.8215 84.7609 99.7959 84.736 99.7704C84.7131 99.7468 84.6895 99.7225 84.6659 99.699C84.6168 99.6498 84.567 99.602 84.5166 99.5549C84.4871 99.5274 84.457 99.4998 84.4262 99.4723C84.3993 99.4481 84.3725 99.4245 84.345 99.4009C84.3234 99.3826 84.3017 99.3636 84.2801 99.3459C84.2585 99.3276 84.2369 99.3099 84.2146 99.2916C84.1793 99.2627 84.1426 99.2339 84.1059 99.2058C84.102 99.2018 84.098 99.1992 84.0941 99.1959C84.0797 99.1848 84.0653 99.1737 84.0509 99.1638C84.0325 99.1494 84.0142 99.1357 83.9959 99.1219C83.9625 99.0977 83.9291 99.0734 83.8956 99.0499C83.8649 99.0276 83.8341 99.006 83.8026 98.985C83.802 98.9844 83.8013 98.9837 83.8007 98.9831C83.7699 98.9627 83.7391 98.9418 83.7077 98.9215C83.6762 98.9005 83.6435 98.8802 83.6114 98.8599C83.5806 98.8409 83.5505 98.8219 83.5197 98.8036C83.4889 98.7852 83.4581 98.7669 83.4267 98.7492C83.3775 98.7204 83.3284 98.6929 83.2793 98.6667C83.261 98.6569 83.2426 98.647 83.2249 98.6379C83.185 98.6163 83.1444 98.596 83.1038 98.5756C83.0821 98.5652 83.0605 98.554 83.0383 98.5436C83.0153 98.5324 82.9931 98.5213 82.9695 98.5108C82.9361 98.4951 82.902 98.4794 82.868 98.4643L81.9176 98.0412H81.9169L79.5026 96.9657H79.5019L77.0876 95.8901L67.1787 91.4768L65.2137 90.6017L60.8442 88.6557C60.5947 88.5443 60.3432 88.4448 60.0903 88.357C57.1965 87.3496 54.1619 87.8559 51.8111 89.4194H51.8105C49.6765 90.8375 48.1051 93.1254 47.7121 95.9425C47.6506 96.3827 47.6211 96.8202 47.6211 97.2532C47.6211 101.867 51.0212 105.893 55.7221 106.549L79.5995 109.88C80.6789 110.031 81.7309 109.884 82.6734 109.502C82.7631 109.466 82.8522 109.428 82.94 109.387H82.9407C83.035 109.344 83.1273 109.298 83.2184 109.25C83.2485 109.233 83.2793 109.217 83.3094 109.2C83.35 109.178 83.39 109.155 83.4299 109.132C83.5361 109.071 83.6409 109.007 83.743 108.938C83.8446 108.871 83.9448 108.801 84.0417 108.727C84.0673 108.708 84.0921 108.689 84.1164 108.669C84.1282 108.659 84.1406 108.65 84.1524 108.641C84.2028 108.601 84.2526 108.56 84.3017 108.519C84.3345 108.491 84.3672 108.463 84.4 108.434C84.402 108.433 84.4039 108.431 84.4059 108.429C84.4216 108.414 84.438 108.4 84.4544 108.386C84.5041 108.34 84.5539 108.295 84.6024 108.247C84.6463 108.204 84.6895 108.161 84.7321 108.118C84.7537 108.095 84.776 108.072 84.7969 108.05C84.8179 108.027 84.8388 108.004 84.8591 107.982C84.9017 107.937 84.9423 107.89 84.9816 107.844C85.0019 107.821 85.0216 107.797 85.0412 107.773C85.0609 107.75 85.0805 107.725 85.1002 107.702C85.1198 107.678 85.1388 107.654 85.1578 107.629C85.1768 107.605 85.1958 107.58 85.2142 107.556C85.2404 107.522 85.2659 107.487 85.2908 107.452C85.296 107.446 85.3006 107.44 85.3046 107.433C85.3308 107.397 85.3563 107.36 85.3818 107.323C85.3976 107.3 85.4133 107.276 85.429 107.252C85.4637 107.201 85.4971 107.149 85.5299 107.096C85.5403 107.078 85.5508 107.061 85.562 107.044C85.5698 107.03 85.5783 107.016 85.5862 107.002C85.6 106.98 85.6131 106.958 85.6255 106.935C85.6589 106.878 85.691 106.821 85.7211 106.762C85.7342 106.738 85.7473 106.713 85.7598 106.688C85.7807 106.649 85.801 106.609 85.82 106.569C85.8253 106.559 85.8305 106.548 85.8351 106.538C85.8384 106.533 85.841 106.527 85.843 106.521C85.8436 106.519 85.8443 106.519 85.8443 106.518C85.8469 106.513 85.8489 106.508 85.8508 106.503C85.8659 106.472 85.8803 106.442 85.8941 106.411C85.9032 106.39 85.913 106.369 85.9222 106.348C85.9353 106.319 85.9478 106.29 85.9596 106.261C85.9694 106.237 85.9785 106.214 85.9884 106.19C85.993 106.18 85.9975 106.168 86.0015 106.157C86.0349 106.074 86.0663 105.99 86.0951 105.904C86.1076 105.869 86.1194 105.833 86.1305 105.798C86.1397 105.771 86.1482 105.746 86.1561 105.72C86.1639 105.694 86.1718 105.668 86.179 105.642C86.1809 105.638 86.1816 105.634 86.1823 105.63C86.1895 105.605 86.1967 105.581 86.2032 105.556C86.2098 105.534 86.2157 105.513 86.2216 105.492C86.2255 105.476 86.2294 105.46 86.234 105.443C86.2425 105.412 86.2497 105.38 86.2576 105.349C86.2648 105.318 86.2726 105.286 86.2792 105.254C86.2903 105.207 86.3002 105.158 86.3093 105.111C86.3191 105.063 86.3277 105.014 86.3362 104.966C86.3414 104.936 86.346 104.907 86.3506 104.878C86.3565 104.842 86.3617 104.807 86.367 104.771C86.4056 104.492 86.4246 104.215 86.4246 103.939C86.4246 103.903 86.4246 103.866 86.4233 103.829C86.4233 103.803 86.4226 103.776 86.4213 103.749H86.4214Z" fill="white" stroke="black" stroke-width="5" mask="url(#path-3-inside-1_3046_20765)"/>
<path d="M79.499 28.3115C86.7123 28.3118 92.5596 34.1603 92.5596 41.373C92.5593 48.5856 86.7122 54.4334 79.499 54.4336H79.498L79.1611 54.4297C72.1034 54.2504 66.4377 48.4737 66.4375 41.373C66.4375 34.1595 72.2855 28.3115 79.499 28.3115Z" fill="white" stroke="black" stroke-width="2.5"/>
<path d="M79.499 58.8994C83.9958 58.8994 88.4895 60.3999 92.1865 63.4004L104.399 75.6152C105.442 76.6574 106.808 77.3147 108.273 77.4795V77.4805L113.761 78.0996H113.762C115.989 78.3506 117.551 80.389 117.249 82.582L117.215 82.7949C117.039 83.7069 116.56 84.4965 115.891 85.0664H115.89C115.221 85.6363 114.366 85.9848 113.438 86.0127H113.438L108.035 86.1777C106.187 85.1654 104.105 84.6212 101.979 84.6211C101.218 84.6211 100.463 84.6894 99.7197 84.8262L98.7559 83.8613L92.7061 77.8125L90.5723 75.6787V88.5146L79.499 93.4473L68.4258 88.5156V75.6787L60.2432 83.8613L59.2773 84.8262C58.5349 84.6899 57.7805 84.6211 57.0195 84.6211C54.8944 84.6212 52.8113 85.165 50.9629 86.1777L45.5605 86.0127L45.2158 85.9873C44.4213 85.8942 43.6935 85.5651 43.1084 85.0664H43.1074C42.4382 84.4969 41.9592 83.7069 41.7832 82.7939C41.3473 80.5217 42.9387 78.3585 45.2373 78.0996L50.7246 77.4805L50.7236 77.4795C52.1898 77.3149 53.5562 76.6576 54.5986 75.6152L66.8154 63.3965C70.5117 60.3981 75.0039 58.8994 79.499 58.8994Z" fill="white" stroke="black" stroke-width="2.5"/>
</g>
<defs>
<linearGradient id="paint0_linear_3046_20765" x1="79.4198" y1="0" x2="129" y2="136" gradientUnits="userSpaceOnUse">
<stop stop-color="#A83DF9"/>
<stop offset="1" stop-color="#8F13ED"/>
</linearGradient>
</defs>
</svg>
