<svg width="159" height="136" viewBox="0 0 159 136" fill="none" xmlns="http://www.w3.org/2000/svg">
<g opacity="0.85">
<rect width="158.84" height="136" rx="32" fill="url(#paint0_linear_3046_20775)"/>
<path d="M79.6816 50.9209L87.4092 83.8125L88.374 87.9189L89.8018 83.9492L101.425 51.6416L104.908 83.6113L105.036 84.7861L106.216 84.7246C106.365 84.7169 106.515 84.7088 106.662 84.7012L107.412 84.6621L107.729 83.9824L119.352 59.1328L115.398 83.6768L115.383 83.7734L115.382 83.8721L115.354 94.5215L115.354 95.125L115.812 95.4902C115.814 95.4923 115.817 95.4962 115.822 95.501C115.841 95.5183 115.873 95.5504 115.911 95.5947C115.991 95.688 116.07 95.8085 116.119 95.9395C116.164 96.0594 116.183 96.1858 116.151 96.335C116.132 96.4254 116.087 96.5547 115.984 96.7207C115.897 96.7213 115.799 96.723 115.692 96.7236C115.145 96.7269 114.358 96.7296 113.365 96.7324C111.379 96.7381 108.57 96.743 105.205 96.7461C98.4743 96.7523 89.5196 96.7516 80.4746 96.7412C71.4293 96.7308 62.2943 96.7103 55.2041 96.6748C48.8915 96.6432 44.269 96.599 42.7266 96.5449C42.6167 96.4048 42.5764 96.297 42.5596 96.2295C42.5312 96.1154 42.5386 95.9876 42.5918 95.832C42.6182 95.7548 42.6526 95.6784 42.6924 95.6064L43.3643 95.6348L43.3564 94.3242C43.3335 90.6409 43.4289 85.0369 43.4629 83.2041L43.4648 83.0957L43.4482 82.9883L39.6045 58.3174L51.3662 83.8057L51.6816 84.4883L52.4326 84.5303C52.4602 84.5318 52.512 84.5351 52.5498 84.5371L53.7246 84.5986L53.8574 83.4307L57.5059 51.4824L57.5693 50.9189L57.7471 51.4209L69.4209 84.4023L69.7031 85.1992L70.5469 85.2344C70.5675 85.2352 70.5859 85.2361 70.5977 85.2363C70.616 85.2367 70.6116 85.2361 70.6211 85.2363L71.6455 85.2617L71.8711 84.2617L79.4082 50.876L79.5371 50.3057L79.6816 50.9209ZM42.0254 95.5791C42.02 95.5788 42.0151 95.5794 42.0107 95.5791C42.0076 95.5789 42.0047 95.5783 42.002 95.5781C42.0083 95.5786 42.0162 95.5785 42.0254 95.5791ZM41.9932 95.5771C41.9919 95.577 41.9903 95.5772 41.9893 95.5771C41.9843 95.5767 41.9805 95.5764 41.9785 95.5762H41.9834C41.9859 95.5764 41.9892 95.5768 41.9932 95.5771ZM42.2266 93.0879L42.2285 93.0889L42.2246 93.0879H42.2266ZM121.982 46.9385C124.067 46.9442 125.755 48.6412 125.75 50.7344C125.745 52.8276 124.047 54.5161 121.963 54.5107C121.762 54.5102 121.563 54.494 121.37 54.4629L120.824 54.375L120.329 54.1348C119.061 53.5198 118.191 52.2183 118.195 50.7158V50.7148C118.201 48.6213 119.899 46.9332 121.982 46.9385ZM37.0371 46.2158C39.121 46.2213 40.81 47.919 40.8047 50.0117V50.0127C40.8007 51.5029 39.9385 52.7911 38.6836 53.4062L38.1797 53.6523L37.623 53.7412C37.425 53.7726 37.2224 53.7885 37.0166 53.7881C34.9328 53.7821 33.2446 52.086 33.25 49.9932C33.2554 47.9 34.9528 46.2105 37.0371 46.2158ZM102.187 41.998C104.458 42.0039 106.299 43.8539 106.293 46.1357C106.288 48.2854 104.643 50.045 102.552 50.2344L101.598 50.3203L100.716 49.9854C99.1578 49.3926 98.0542 47.8808 98.0586 46.1143C98.0647 43.8328 99.9142 41.9922 102.187 41.998ZM56.9512 41.8809C59.2231 41.8868 61.0633 43.7368 61.0576 46.0186C61.0531 47.7532 59.9806 49.2364 58.4619 49.8428L57.4814 50.2334L56.4199 50.1006C54.389 49.8444 52.817 48.104 52.8223 45.9971C52.8284 43.7155 54.6792 41.8751 56.9512 41.8809ZM79.6289 40.25C82.183 40.2566 84.2516 42.3364 84.2451 44.9004C84.2397 47.1099 82.6921 48.9549 80.627 49.415L79.5557 49.6533L78.4932 49.3877C76.4769 48.8831 74.9847 47.0529 74.9902 44.877C74.9969 42.3127 77.0755 40.2437 79.6289 40.25Z" fill="white" stroke="black" stroke-width="2.5"/>
</g>
<defs>
<linearGradient id="paint0_linear_3046_20775" x1="35" y1="2.34572e-06" x2="167.356" y2="127.313" gradientUnits="userSpaceOnUse">
<stop stop-color="#FB53B8"/>
<stop offset="1" stop-color="#EC1785"/>
</linearGradient>
</defs>
</svg>
