<svg width="52" height="53" viewBox="0 0 52 53" fill="none" xmlns="http://www.w3.org/2000/svg">
<g filter="url(#filter0_d_3046_23503)">
<rect x="3" y="2" width="44" height="45" rx="16" fill="#F4E4FF"/>
<path d="M24.0008 15.7295C26.0333 15.7236 28.0218 16.3209 29.7146 17.4457C31.4075 18.5706 32.7285 20.1725 33.5104 22.0485C34.2923 23.9246 34.5 25.9905 34.1071 27.9847C33.7142 29.9788 32.7385 31.8116 31.3034 33.2508C29.8683 34.6901 28.0384 35.6712 26.0454 36.07C24.0524 36.4687 21.9859 36.267 20.1076 35.4906C18.2292 34.7142 16.6235 33.3979 15.4937 31.7083C14.3639 30.0188 13.7608 28.032 13.7608 25.9995C13.7581 24.6526 14.021 23.3184 14.5343 22.0732C15.0476 20.828 15.8013 19.6961 16.7523 18.7423C17.7033 17.7885 18.833 17.0315 20.0767 16.5146C21.3205 15.9976 22.6539 15.7308 24.0008 15.7295ZM15.0008 25.9995C15.0008 27.7796 15.5286 29.5196 16.5175 30.9997C17.5065 32.4797 18.9121 33.6333 20.5566 34.3145C22.2012 34.9956 24.0108 35.1739 25.7566 34.8266C27.5024 34.4793 29.1061 33.6222 30.3647 32.3635C31.6234 31.1048 32.4806 29.5012 32.8278 27.7553C33.1751 26.0095 32.9969 24.1999 32.3157 22.5554C31.6345 20.9109 30.481 19.5052 29.0009 18.5163C27.5209 17.5274 25.7808 16.9995 24.0008 16.9995C21.6138 16.9995 19.3246 17.9477 17.6368 19.6356C15.949 21.3234 15.0008 23.6126 15.0008 25.9995Z" fill="#920FF1"/>
<path d="M27.1996 25.0497C26.8894 25.0576 26.5839 24.9721 26.3228 24.8044C26.0617 24.6367 25.8569 24.3944 25.735 24.1091C25.6131 23.8237 25.5797 23.5082 25.639 23.2036C25.6984 22.899 25.8479 22.6193 26.068 22.4005C26.2882 22.1818 26.569 22.0342 26.874 21.9769C27.1789 21.9195 27.4941 21.9551 27.7787 22.0789C28.0633 22.2027 28.3042 22.409 28.4701 22.6713C28.6361 22.9335 28.7195 23.2395 28.7096 23.5497C28.6946 23.9445 28.5304 24.3188 28.2502 24.5972C27.9699 24.8756 27.5944 25.0373 27.1996 25.0497ZM20.5596 25.0497C20.3463 25.0669 20.1317 25.0397 19.9294 24.9698C19.7271 24.9 19.5414 24.789 19.3841 24.6438C19.2268 24.4987 19.1013 24.3226 19.0154 24.1265C18.9295 23.9304 18.8852 23.7187 18.8852 23.5047C18.8852 23.2907 18.9295 23.079 19.0154 22.8829C19.1013 22.6868 19.2268 22.5107 19.3841 22.3656C19.5414 22.2204 19.7271 22.1094 19.9294 22.0396C20.1317 21.9697 20.3463 21.9425 20.5596 21.9597C20.764 21.9622 20.9658 22.0057 21.1531 22.0875C21.3404 22.1693 21.5095 22.2878 21.6502 22.436C21.791 22.5842 21.9006 22.7591 21.9726 22.9504C22.0447 23.1417 22.0776 23.3455 22.0696 23.5497C22.067 23.9484 21.9067 24.33 21.6238 24.611C21.3409 24.892 20.9584 25.0497 20.5596 25.0497ZM23.8096 30.3497C24.8543 30.3288 25.879 30.0594 26.7989 29.5638C27.7188 29.0682 28.5075 28.3607 29.0996 27.4997C28.7435 28.6358 28.0411 29.6321 27.0908 30.3493C26.1405 31.0665 24.9898 31.4687 23.7996 31.4997C22.6009 31.4972 21.4354 31.1059 20.4779 30.3847C19.5205 29.6635 18.8228 28.6512 18.4896 27.4997C19.065 28.384 19.8542 29.1087 20.7841 29.6069C21.7141 30.1051 22.7547 30.3606 23.8096 30.3497Z" fill="#920FF1"/>
</g>
<defs>
<filter id="filter0_d_3046_23503" x="0" y="0" width="52" height="53" filterUnits="userSpaceOnUse" color-interpolation-filters="sRGB">
<feFlood flood-opacity="0" result="BackgroundImageFix"/>
<feColorMatrix in="SourceAlpha" type="matrix" values="0 0 0 0 0 0 0 0 0 0 0 0 0 0 0 0 0 0 127 0" result="hardAlpha"/>
<feOffset dx="1" dy="2"/>
<feGaussianBlur stdDeviation="2"/>
<feComposite in2="hardAlpha" operator="out"/>
<feColorMatrix type="matrix" values="0 0 0 0 0.215385 0 0 0 0 0.215385 0 0 0 0 0.215385 0 0 0 0.1 0"/>
<feBlend mode="normal" in2="BackgroundImageFix" result="effect1_dropShadow_3046_23503"/>
<feBlend mode="normal" in="SourceGraphic" in2="effect1_dropShadow_3046_23503" result="shape"/>
</filter>
</defs>
</svg>
