<svg width="52" height="53" viewBox="0 0 52 53" fill="none" xmlns="http://www.w3.org/2000/svg">
<g filter="url(#filter0_d_3046_23517)">
<rect x="3" y="2" width="44" height="45" rx="16" fill="#E7FFEF"/>
<path fill-rule="evenodd" clip-rule="evenodd" d="M26.25 16C25.5833 16 24.9167 16.2533 24.25 16.76C23.5833 16.2533 22.9167 16 22.25 16H16.25C15.7196 16 15.2109 16.2107 14.8358 16.5858C14.4607 16.9609 14.25 17.4696 14.25 18V31C14.25 31.5304 14.4607 32.0391 14.8358 32.4142C15.2109 32.7893 15.7196 33 16.25 33H23.25C23.25 33.552 23.7 34 24.25 34C24.8 34 25.25 33.55 25.25 33H32.25C32.7804 33 33.2891 32.7893 33.6642 32.4142C34.0393 32.0391 34.25 31.5304 34.25 31V18C34.25 17.4696 34.0393 16.9609 33.6642 16.5858C33.2891 16.2107 32.7804 16 32.25 16H26.25ZM26.25 18H32.25V31H25.25V19C25.25 18.45 25.7 18 26.25 18ZM16.25 18H22.25C22.8 18 23.25 18.45 23.25 19V31H16.25V18Z" fill="#00A63E"/>
</g>
<defs>
<filter id="filter0_d_3046_23517" x="0" y="0" width="52" height="53" filterUnits="userSpaceOnUse" color-interpolation-filters="sRGB">
<feFlood flood-opacity="0" result="BackgroundImageFix"/>
<feColorMatrix in="SourceAlpha" type="matrix" values="0 0 0 0 0 0 0 0 0 0 0 0 0 0 0 0 0 0 127 0" result="hardAlpha"/>
<feOffset dx="1" dy="2"/>
<feGaussianBlur stdDeviation="2"/>
<feComposite in2="hardAlpha" operator="out"/>
<feColorMatrix type="matrix" values="0 0 0 0 0.215385 0 0 0 0 0.215385 0 0 0 0 0.215385 0 0 0 0.1 0"/>
<feBlend mode="normal" in2="BackgroundImageFix" result="effect1_dropShadow_3046_23517"/>
<feBlend mode="normal" in="SourceGraphic" in2="effect1_dropShadow_3046_23517" result="shape"/>
</filter>
</defs>
</svg>
