<svg width="36" height="36" viewBox="0 0 36 36" fill="none" xmlns="http://www.w3.org/2000/svg">
<path d="M24.6521 15.3122L29.9804 17.9764C30.5548 18.2636 30.5548 19.0834 29.9804 19.3707L18.2781 25.2218C18.0587 25.3315 17.8004 25.3315 17.5809 25.2218L5.87866 19.3707C5.30418 19.0834 5.30418 18.2636 5.87866 17.9764L11.2069 15.3122M24.6521 22.7818L29.9804 25.4459C30.5548 25.7332 30.5548 26.553 29.9804 26.8402L18.2781 32.6913C18.0587 32.8011 17.8004 32.8011 17.5809 32.6913L5.87866 26.8402C5.30418 26.553 5.30418 25.7331 5.87866 25.4459L11.2069 22.7818M5.87866 11.9012L17.5809 17.7523C17.8004 17.862 18.0587 17.862 18.2781 17.7523L29.9804 11.9012C30.5548 11.6139 30.5548 10.7941 29.9804 10.5069L18.2781 4.65573C18.0587 4.54602 17.8004 4.54602 17.5809 4.65573L5.87866 10.5069C5.30418 10.7941 5.30418 11.6139 5.87866 11.9012Z" stroke="#1B9EE0" stroke-width="2"/>
</svg>
