<svg width="36" height="36" viewBox="0 0 36 36" fill="none" xmlns="http://www.w3.org/2000/svg">
<path fill-rule="evenodd" clip-rule="evenodd" d="M29.5798 15.2084C29.1167 10.4578 26.3081 2.98828 17.6286 2.98828C8.949 2.98828 6.14043 10.4578 5.67734 15.2084C4.05272 15.825 2.9811 17.3848 2.98832 19.1224V21.2139C2.98832 23.5241 4.86111 25.3968 7.17123 25.3968C9.48141 25.3968 11.3542 23.524 11.3542 21.2139V19.1224C11.3466 17.4223 10.3144 15.8946 8.73983 15.2533C9.03863 12.5044 10.5027 5.97611 17.6286 5.97611C24.7545 5.97611 26.2036 12.5044 26.5024 15.2533C24.931 15.896 23.904 17.4247 23.903 19.1224V21.2139C23.9062 22.001 24.1306 22.7713 24.5506 23.437C24.9706 24.1027 25.5693 24.6368 26.2783 24.9786C25.6509 26.1587 24.0524 27.7572 20.1234 28.2352C19.338 27.0427 17.8185 26.5725 16.4968 27.1132C15.1752 27.6538 14.4208 29.0541 14.6964 30.4552C14.9721 31.8563 16.2006 32.8664 17.6286 32.8664C18.1819 32.8633 18.7235 32.7066 19.193 32.4138C19.6625 32.1211 20.0415 31.7037 20.2877 31.2082C26.6966 30.4761 28.7432 27.1746 29.3856 25.2325C31.1235 24.6695 32.2923 23.0406 32.2688 21.2139V19.1224C32.276 17.3848 31.2044 15.825 29.5798 15.2084ZM8.36637 21.2139C8.36637 21.8739 7.8313 22.409 7.17123 22.409C6.51115 22.409 5.97615 21.874 5.97615 21.2139V19.1224C5.97494 18.9647 6.00496 18.8083 6.06448 18.6623C6.124 18.5162 6.21184 18.3834 6.32294 18.2714C6.43403 18.1595 6.56619 18.0706 6.71179 18.01C6.85738 17.9494 7.01354 17.9182 7.17126 17.9182C7.32898 17.9182 7.48514 17.9494 7.63074 18.01C7.77633 18.0706 7.90849 18.1595 8.01959 18.2714C8.13068 18.3834 8.21852 18.5162 8.27804 18.6623C8.33756 18.8083 8.36758 18.9647 8.36637 19.1224V21.2139ZM26.8908 19.1224C26.8908 18.4624 27.4258 17.9273 28.0859 17.9273C28.746 17.9273 29.2811 18.4624 29.2811 19.1224V21.2139C29.2811 21.8739 28.746 22.409 28.0859 22.409C27.4258 22.409 26.8908 21.874 26.8908 21.2139V19.1224Z" fill="#1B9EE0"/>
</svg>
