<svg width="36" height="36" viewBox="0 0 36 36" fill="none" xmlns="http://www.w3.org/2000/svg">
<g clip-path="url(#clip0_3046_21891)">
<path d="M21.6621 3.73476C21.6621 5.97562 19.4212 12.6982 19.4212 12.6982H16.4334C16.4334 12.6982 14.1926 5.97562 14.1926 3.73476C14.1926 2.74424 14.586 1.79429 15.2864 1.09389C15.9869 0.393483 16.9368 0 17.9273 0C18.9178 0 19.8678 0.393483 20.5682 1.09389C21.2686 1.79429 21.6621 2.74424 21.6621 3.73476ZM17.9273 14.939C16.284 14.939 14.9395 16.2836 14.9395 17.9268C14.9395 19.5701 16.284 20.9147 17.9273 20.9147C19.5706 20.9147 20.9151 19.5701 20.9151 17.9268C20.9151 16.2836 19.5706 14.939 17.9273 14.939ZM24.0225 7.63385C24.2914 6.51342 24.5154 5.43781 24.6051 4.55641C27.0884 5.79735 29.1769 7.70571 30.6361 10.0674C32.0954 12.4291 32.8677 15.1507 32.8664 17.9268C32.8664 26.1732 26.1737 32.8659 17.9273 32.8659C9.68097 32.8659 2.98828 26.1732 2.98828 17.9268C2.98828 12.0707 6.34957 7.00641 11.2496 4.55641C11.3541 5.43781 11.5633 6.52836 11.8322 7.63385C10.049 8.69626 8.57194 10.2032 7.54549 12.0074C6.51903 13.8115 5.97828 15.8511 5.97609 17.9268C5.97609 24.5299 11.3243 29.8781 17.9273 29.8781C24.5304 29.8781 29.8786 24.5299 29.8786 17.9268C29.8786 13.5497 27.5182 9.72532 24.0225 7.63385ZM26.8907 17.9268C26.8907 22.8717 22.8721 26.8903 17.9273 26.8903C12.9825 26.8903 8.9639 22.8717 8.9639 17.9268C8.9639 14.939 10.4279 12.2948 12.6688 10.6665C13.0124 11.8765 13.6398 13.7589 13.6398 13.7589C12.5941 14.8345 11.9517 16.3134 11.9517 17.9268C11.9517 21.2284 14.6258 23.9025 17.9273 23.9025C21.2289 23.9025 23.9029 21.2284 23.9029 17.9268C23.9029 16.3134 23.2606 14.8345 22.2148 13.7589C22.2148 13.7589 22.8273 11.9363 23.1859 10.6665C24.3333 11.4977 25.2673 12.5891 25.9113 13.8512C26.5553 15.1132 26.891 16.51 26.8907 17.9268Z" fill="#1B9EE0"/>
</g>
<defs>
<clipPath id="clip0_3046_21891">
<rect width="35.8537" height="35.8537" fill="white"/>
</clipPath>
</defs>
</svg>
