<svg width="36" height="36" viewBox="0 0 36 36" fill="none" xmlns="http://www.w3.org/2000/svg">
<path d="M5.97656 11.9512V8.96339C5.97656 8.17098 6.29135 7.41102 6.85167 6.85069C7.41199 6.29037 8.17195 5.97559 8.96437 5.97559H11.9522M5.97656 23.9024V26.8902C5.97656 27.6827 6.29135 28.4426 6.85167 29.0029C7.41199 29.5633 8.17195 29.8781 8.96437 29.8781H11.9522M23.9034 5.97559H26.8912C27.6836 5.97559 28.4436 6.29037 29.0039 6.85069C29.5642 7.41102 29.879 8.17098 29.879 8.96339V11.9512M23.9034 29.8781H26.8912C27.6836 29.8781 28.4436 29.5633 29.0039 29.0029C29.5642 28.4426 29.879 27.6827 29.879 26.8902V23.9024M14.94 16.4329V13.4451C14.94 12.6527 15.2548 11.8927 15.8151 11.3324C16.3754 10.7721 17.1354 10.4573 17.9278 10.4573C18.7202 10.4573 19.4802 10.7721 20.0405 11.3324C20.6008 11.8927 20.9156 12.6527 20.9156 13.4451V16.4329M11.9522 17.9268C11.9522 17.5306 12.1096 17.1506 12.3897 16.8705C12.6699 16.5903 13.0499 16.4329 13.4461 16.4329H22.4095C22.8057 16.4329 23.1857 16.5903 23.4659 16.8705C23.746 17.1506 23.9034 17.5306 23.9034 17.9268V22.4085C23.9034 22.8047 23.746 23.1847 23.4659 23.4649C23.1857 23.745 22.8057 23.9024 22.4095 23.9024H13.4461C13.0499 23.9024 12.6699 23.745 12.3897 23.4649C12.1096 23.1847 11.9522 22.8047 11.9522 22.4085V17.9268Z" stroke="#1B9EE0" stroke-width="2.98781" stroke-linecap="round" stroke-linejoin="round"/>
</svg>
