<svg width="36" height="36" viewBox="0 0 36 36" fill="none" xmlns="http://www.w3.org/2000/svg">
<path d="M29.879 25.3961V10.4571C29.879 7.21828 24.4069 4.48145 17.9278 4.48145C11.4487 4.48145 5.97656 7.21828 5.97656 10.4571V25.3961C5.97656 28.6349 11.4487 31.3717 17.9278 31.3717C24.4069 31.3717 29.879 28.6349 29.879 25.3961ZM17.9278 7.46925C23.4418 7.46925 26.7881 9.72057 26.8912 10.4481C26.7881 11.1936 23.4418 13.4449 17.9278 13.4449C12.4138 13.4449 9.06745 11.1936 8.96437 10.466C9.06745 9.72057 12.4138 7.46925 17.9278 7.46925ZM8.96437 14.3517C11.1739 15.617 14.3977 16.4327 17.9278 16.4327C21.4579 16.4327 24.6817 15.617 26.8912 14.3517V17.9176C26.7881 18.6631 23.4418 20.9144 17.9278 20.9144C12.4138 20.9144 9.06745 18.6631 8.96437 17.9266V14.3517ZM8.96437 25.3961V21.8212C11.1739 23.0865 14.3977 23.9022 17.9278 23.9022C21.4579 23.9022 24.6817 23.0865 26.8912 21.8212V25.3871C26.7881 26.1326 23.4418 28.3839 17.9278 28.3839C12.4138 28.3839 9.06745 26.1326 8.96437 25.3961Z" fill="#1B9EE0"/>
</svg>
