<svg width="33" height="25" viewBox="0 0 33 25" fill="none" xmlns="http://www.w3.org/2000/svg">
<path opacity="0.1" d="M0.000608975 24.6954V17.6296C0.000608975 15.5977 0.381605 13.4849 1.1436 11.2913C1.92868 9.07455 2.99085 6.98484 4.33011 5.02214C5.69246 3.03634 7.21644 1.36227 8.90206 -8.41631e-05L14.7209 3.77524C13.3586 5.83031 12.2156 7.97774 11.2919 10.2175C10.3914 12.4342 9.95269 14.8819 9.97578 17.5604V24.6954H0.000608975ZM17.5611 24.6954V17.6296C17.5611 15.5977 17.9421 13.4849 18.7041 11.2913C19.4891 9.07455 20.5513 6.98484 21.8906 5.02214C23.2529 3.03634 24.7769 1.36227 26.4625 -8.41631e-05L32.2814 3.77524C30.919 5.83031 29.776 7.97774 28.8524 10.2175C27.9519 12.4342 27.5131 14.8819 27.5362 17.5604V24.6954H17.5611Z" fill="#097CFF"/>
</svg>
