<svg width="68" height="64" viewBox="0 0 68 64" fill="none" xmlns="http://www.w3.org/2000/svg">
<g filter="url(#filter0_d_3117_12199)">
<rect x="4" y="2" width="59.0938" height="55.7488" rx="13.3797" fill="url(#paint0_linear_3117_12199)"/>
<path d="M34.1055 38.7947V19.468M34.1055 19.468C34.1055 18.7839 34.2629 18.1089 34.5654 17.4953C34.868 16.8817 35.3077 16.346 35.8504 15.9295C36.3931 15.513 37.0244 15.227 37.6954 15.0935C38.3664 14.96 39.0591 14.9827 39.7199 15.1598C40.3807 15.3369 40.9919 15.6636 41.5063 16.1147C42.0206 16.5657 42.4243 17.1291 42.6861 17.7612C42.9479 18.3932 43.0608 19.077 43.016 19.7597C42.9712 20.4423 42.77 21.1056 42.4279 21.698M34.1055 19.468C34.1056 18.7839 33.9482 18.1089 33.6457 17.4953C33.3431 16.8817 32.9034 16.346 32.3607 15.9295C31.8179 15.513 31.1867 15.227 30.5157 15.0935C29.8447 14.96 29.152 14.9827 28.4912 15.1598C27.8304 15.3369 27.2192 15.6636 26.7048 16.1147C26.1905 16.5657 25.7868 17.1291 25.525 17.7612C25.2632 18.3932 25.1503 19.077 25.1951 19.7597C25.2399 20.4423 25.4411 21.1056 25.7832 21.698M38.5655 31.3613C37.2793 30.9853 36.1495 30.2027 35.3454 29.1306C34.5414 28.0585 34.1064 26.7548 34.1055 25.4147C34.1047 26.7548 33.6697 28.0585 32.8657 29.1306C32.0616 30.2027 30.9318 30.9853 29.6455 31.3613" stroke="white" stroke-width="2.66667" stroke-linecap="round" stroke-linejoin="round"/>
<path d="M43.0215 19.6543C43.8953 19.879 44.7066 20.2996 45.3939 20.8842C46.0811 21.4689 46.6263 22.2023 46.9881 23.0288C47.35 23.8554 47.519 24.7534 47.4824 25.6549C47.4458 26.5565 47.2045 27.4379 46.7768 28.2324" stroke="white" stroke-width="2.66667" stroke-linecap="round" stroke-linejoin="round"/>
<path d="M43.0254 38.7947C44.3344 38.7947 45.6068 38.3627 46.6453 37.5658C47.6838 36.7689 48.4304 35.6516 48.7692 34.3872C49.108 33.1228 49.0201 31.7819 48.5192 30.5725C48.0183 29.3631 47.1323 28.3528 45.9987 27.6982" stroke="white" stroke-width="2.66667" stroke-linecap="round" stroke-linejoin="round"/>
<path d="M45.9485 38.0264C46.0527 38.8325 45.9906 39.6514 45.7659 40.4326C45.5411 41.2137 45.1587 41.9405 44.6421 42.5681C44.1255 43.1956 43.4857 43.7106 42.7623 44.0812C42.0389 44.4518 41.2471 44.6702 40.436 44.7228C39.6249 44.7754 38.8116 44.6612 38.0463 44.3872C37.2811 44.1132 36.5801 43.6853 35.9867 43.1297C35.3934 42.5742 34.9202 41.9029 34.5964 41.1574C34.2726 40.4118 34.1051 39.6078 34.1043 38.795C34.1034 39.6078 33.9359 40.4118 33.6121 41.1574C33.2883 41.9029 32.8152 42.5742 32.2218 43.1297C31.6284 43.6853 30.9275 44.1132 30.1622 44.3872C29.3969 44.6612 28.5836 44.7754 27.7725 44.7228C26.9614 44.6702 26.1697 44.4518 25.4462 44.0812C24.7228 43.7106 24.0831 43.1956 23.5665 42.5681C23.0499 41.9405 22.6674 41.2137 22.4427 40.4326C22.218 39.6514 22.1558 38.8325 22.26 38.0264" stroke="white" stroke-width="2.66667" stroke-linecap="round" stroke-linejoin="round"/>
<path d="M25.1847 38.7947C23.8757 38.7947 22.6032 38.3627 21.5648 37.5658C20.5263 36.7689 19.7797 35.6516 19.4409 34.3872C19.1021 33.1228 19.19 31.7819 19.6909 30.5725C20.1918 29.3631 21.0777 28.3528 22.2114 27.6982" stroke="white" stroke-width="2.66667" stroke-linecap="round" stroke-linejoin="round"/>
<path d="M25.1885 19.6543C24.3146 19.879 23.5033 20.2996 22.8161 20.8842C22.1288 21.4689 21.5837 22.2023 21.2218 23.0288C20.86 23.8554 20.6909 24.7534 20.7276 25.6549C20.7642 26.5565 21.0055 27.4379 21.4331 28.2324" stroke="white" stroke-width="2.66667" stroke-linecap="round" stroke-linejoin="round"/>
</g>
<defs>
<filter id="filter0_d_3117_12199" x="0" y="0" width="67.0938" height="63.749" filterUnits="userSpaceOnUse" color-interpolation-filters="sRGB">
<feFlood flood-opacity="0" result="BackgroundImageFix"/>
<feColorMatrix in="SourceAlpha" type="matrix" values="0 0 0 0 0 0 0 0 0 0 0 0 0 0 0 0 0 0 127 0" result="hardAlpha"/>
<feOffset dy="2"/>
<feGaussianBlur stdDeviation="2"/>
<feComposite in2="hardAlpha" operator="out"/>
<feColorMatrix type="matrix" values="0 0 0 0 0 0 0 0 0 0 0 0 0 0 0 0 0 0 0.15 0"/>
<feBlend mode="normal" in2="BackgroundImageFix" result="effect1_dropShadow_3117_12199"/>
<feBlend mode="normal" in="SourceGraphic" in2="effect1_dropShadow_3117_12199" result="shape"/>
</filter>
<linearGradient id="paint0_linear_3117_12199" x1="4" y1="2" x2="58" y2="61" gradientUnits="userSpaceOnUse">
<stop stop-color="#1DA0E1"/>
<stop offset="1" stop-color="#4DC0F8"/>
</linearGradient>
</defs>
</svg>
