<svg width="68" height="64" viewBox="0 0 68 64" fill="none" xmlns="http://www.w3.org/2000/svg">
<g filter="url(#filter0_d_3117_12216)">
<rect x="4" y="2" width="59.0938" height="55.7488" rx="13.3797" fill="url(#paint0_linear_3117_12216)"/>
<path d="M47.485 41.7688H45.9983V19.4688C45.9983 19.0745 45.8417 18.6964 45.5629 18.4176C45.284 18.1388 44.9059 17.9821 44.5116 17.9821C44.1173 17.9821 43.7392 18.1388 43.4604 18.4176C43.1816 18.6964 43.025 19.0745 43.025 19.4688V41.7688H40.0516V25.4155C40.0516 25.0212 39.895 24.643 39.6162 24.3642C39.3374 24.0854 38.9592 23.9288 38.5649 23.9288C38.1707 23.9288 37.7925 24.0854 37.5137 24.3642C37.2349 24.643 37.0783 25.0212 37.0783 25.4155V41.7688H34.1049V31.3621C34.1049 30.9678 33.9483 30.5897 33.6695 30.3109C33.3907 30.0321 33.0126 29.8755 32.6183 29.8755C32.224 29.8755 31.8459 30.0321 31.5671 30.3109C31.2882 30.5897 31.1316 30.9678 31.1316 31.3621V41.7688H28.1583V37.3088C28.1583 36.9145 28.0017 36.5364 27.7228 36.2576C27.444 35.9788 27.0659 35.8221 26.6716 35.8221C26.2773 35.8221 25.8992 35.9788 25.6204 36.2576C25.3416 36.5364 25.1849 36.9145 25.1849 37.3088V41.7688H22.2116V16.4955C22.2116 16.1012 22.055 15.723 21.7762 15.4442C21.4974 15.1654 21.1192 15.0088 20.7249 15.0088C20.3307 15.0088 19.9525 15.1654 19.6737 15.4442C19.3949 15.723 19.2383 16.1012 19.2383 16.4955V43.2555C19.2383 43.6497 19.3949 44.0279 19.6737 44.3067C19.9525 44.5855 20.3307 44.7421 20.7249 44.7421H47.485C47.8792 44.7421 48.2574 44.5855 48.5362 44.3067C48.815 44.0279 48.9716 43.6497 48.9716 43.2555C48.9716 42.8612 48.815 42.483 48.5362 42.2042C48.2574 41.9254 47.8792 41.7688 47.485 41.7688Z" fill="white"/>
</g>
<defs>
<filter id="filter0_d_3117_12216" x="0" y="0" width="67.0938" height="63.749" filterUnits="userSpaceOnUse" color-interpolation-filters="sRGB">
<feFlood flood-opacity="0" result="BackgroundImageFix"/>
<feColorMatrix in="SourceAlpha" type="matrix" values="0 0 0 0 0 0 0 0 0 0 0 0 0 0 0 0 0 0 127 0" result="hardAlpha"/>
<feOffset dy="2"/>
<feGaussianBlur stdDeviation="2"/>
<feComposite in2="hardAlpha" operator="out"/>
<feColorMatrix type="matrix" values="0 0 0 0 0 0 0 0 0 0 0 0 0 0 0 0 0 0 0.15 0"/>
<feBlend mode="normal" in2="BackgroundImageFix" result="effect1_dropShadow_3117_12216"/>
<feBlend mode="normal" in="SourceGraphic" in2="effect1_dropShadow_3117_12216" result="shape"/>
</filter>
<linearGradient id="paint0_linear_3117_12216" x1="4" y1="2" x2="58" y2="61" gradientUnits="userSpaceOnUse">
<stop stop-color="#1DA0E1"/>
<stop offset="1" stop-color="#4DC0F8"/>
</linearGradient>
</defs>
</svg>
