<svg width="68" height="64" viewBox="0 0 68 64" fill="none" xmlns="http://www.w3.org/2000/svg">
<g filter="url(#filter0_d_3117_12228)">
<rect x="4" y="2" width="59.0938" height="55.7488" rx="13.3797" fill="url(#paint0_linear_3117_12228)"/>
<path d="M48.5511 39.1501L43.9252 17.1567C43.8654 16.8691 43.7493 16.5961 43.5837 16.3535C43.418 16.1109 43.2061 15.9034 42.96 15.7429C42.714 15.5825 42.4386 15.4722 42.1498 15.4185C41.861 15.3647 41.5644 15.3686 41.2771 15.4298L34.7529 16.832C34.1759 16.9583 33.672 17.3074 33.351 17.8033C33.0299 18.2992 32.9177 18.9018 33.0386 19.4801L37.6645 41.4735C37.7676 41.9752 38.0403 42.4262 38.4367 42.7506C38.8332 43.075 39.3293 43.253 39.8415 43.2547C39.9999 43.2544 40.1578 43.2376 40.3126 43.2045L46.8368 41.8024C47.4145 41.6757 47.9189 41.3259 48.24 40.8292C48.561 40.3324 48.6729 39.7289 48.5511 39.1501ZM35.2198 19.0243V19.0118L41.7426 17.618L42.2067 19.8299L35.684 21.2334L35.2198 19.0243ZM36.1425 23.4105L42.668 22.0097L43.1336 24.2258L36.6136 25.6279L36.1425 23.4105ZM37.068 27.8105L43.5935 26.4084L45.4472 35.2225L38.9216 36.6246L37.068 27.8105ZM46.3698 39.6226L39.8471 41.0163L39.383 38.8044L45.9057 37.4009L46.3698 39.61V39.6226ZM30.7598 16.4947H24.0698C23.4784 16.4947 22.9112 16.7296 22.493 17.1478C22.0748 17.566 21.8398 18.1332 21.8398 18.7247V41.0247C21.8398 41.6161 22.0748 42.1833 22.493 42.6015C22.9112 43.0197 23.4784 43.2547 24.0698 43.2547H30.7598C31.3513 43.2547 31.9185 43.0197 32.3367 42.6015C32.7549 42.1833 32.9898 41.6161 32.9898 41.0247V18.7247C32.9898 18.1332 32.7549 17.566 32.3367 17.1478C31.9185 16.7296 31.3513 16.4947 30.7598 16.4947ZM24.0698 18.7247H30.7598V20.9547H24.0698V18.7247ZM24.0698 23.1847H30.7598V36.5647H24.0698V23.1847ZM30.7598 41.0247H24.0698V38.7947H30.7598V41.0247Z" fill="white"/>
</g>
<defs>
<filter id="filter0_d_3117_12228" x="0" y="0" width="67.0938" height="63.749" filterUnits="userSpaceOnUse" color-interpolation-filters="sRGB">
<feFlood flood-opacity="0" result="BackgroundImageFix"/>
<feColorMatrix in="SourceAlpha" type="matrix" values="0 0 0 0 0 0 0 0 0 0 0 0 0 0 0 0 0 0 127 0" result="hardAlpha"/>
<feOffset dy="2"/>
<feGaussianBlur stdDeviation="2"/>
<feComposite in2="hardAlpha" operator="out"/>
<feColorMatrix type="matrix" values="0 0 0 0 0 0 0 0 0 0 0 0 0 0 0 0 0 0 0.15 0"/>
<feBlend mode="normal" in2="BackgroundImageFix" result="effect1_dropShadow_3117_12228"/>
<feBlend mode="normal" in="SourceGraphic" in2="effect1_dropShadow_3117_12228" result="shape"/>
</filter>
<linearGradient id="paint0_linear_3117_12228" x1="4" y1="2" x2="58" y2="61" gradientUnits="userSpaceOnUse">
<stop stop-color="#1DA0E1"/>
<stop offset="1" stop-color="#4DC0F8"/>
</linearGradient>
</defs>
</svg>
