<svg width="68" height="64" viewBox="0 0 68 64" fill="none" xmlns="http://www.w3.org/2000/svg">
<g filter="url(#filter0_d_3117_12239)">
<rect x="4" y="2" width="59.0938" height="55.7488" rx="13.3797" fill="url(#paint0_linear_3117_12239)"/>
<path d="M34.056 25.1803C32.4046 25.1803 30.9952 24.6109 29.8279 23.472C28.6605 22.3331 28.0768 20.9581 28.0768 19.347C28.0768 17.7359 28.6605 16.3609 29.8279 15.222C30.9952 14.0831 32.4046 13.5137 34.056 13.5137C35.7074 13.5137 37.1168 14.0831 38.2841 15.222C39.4515 16.3609 40.0352 17.7359 40.0352 19.347C40.0352 20.9581 39.4515 22.3331 38.2841 23.472C37.1168 24.6109 35.7074 25.1803 34.056 25.1803ZM34.056 21.847C34.7678 21.847 35.3731 21.6042 35.8719 21.1187C36.3708 20.6331 36.6196 20.0426 36.6185 19.347C36.6173 18.6514 36.3685 18.0615 35.8719 17.577C35.3754 17.0926 34.7701 16.8492 34.056 16.847C33.3419 16.8448 32.7372 17.0881 32.2417 17.577C31.7463 18.0659 31.4969 18.6559 31.4935 19.347C31.4901 20.0381 31.7395 20.6287 32.2417 21.1187C32.744 21.6087 33.3487 21.8514 34.056 21.847ZM31.6216 44.472L23.806 36.847C23.2365 36.2914 22.8095 35.6664 22.5247 34.972C22.24 34.2776 22.0977 33.5137 22.0977 32.6803C22.0977 31.0414 22.6745 29.6592 23.8282 28.5337C24.9819 27.4081 26.3981 26.8459 28.0768 26.847C28.9025 26.847 29.6644 26.9998 30.3626 27.3053C31.0607 27.6109 31.6939 28.0414 32.2622 28.597L34.056 30.347L35.8497 28.597C36.4192 28.0414 37.053 27.6109 37.7511 27.3053C38.4493 26.9998 39.2106 26.847 40.0352 26.847C41.715 26.847 43.1318 27.4098 44.2855 28.5353C45.4392 29.6609 46.0155 31.0426 46.0143 32.6803C46.0143 33.5137 45.872 34.2776 45.5872 34.972C45.3025 35.6664 44.8754 36.2914 44.306 36.847L36.4904 44.472C36.1487 44.8053 35.7643 45.0553 35.3372 45.222C34.9102 45.3887 34.4831 45.472 34.056 45.472C33.6289 45.472 33.2018 45.3887 32.7747 45.222C32.3477 45.0553 31.9633 44.8053 31.6216 44.472ZM34.056 42.097L41.8289 34.5137C42.0852 34.2637 42.2776 33.9792 42.4063 33.6603C42.535 33.3414 42.5988 33.0148 42.5977 32.6803C42.5977 32.0137 42.3556 31.4303 41.8716 30.9303C41.3876 30.4303 40.7754 30.1803 40.0352 30.1803C39.6935 30.1803 39.3877 30.2292 39.1178 30.327C38.8479 30.4248 38.5842 30.5981 38.3268 30.847L34.056 35.0137L29.7852 30.847C29.6143 30.6803 29.3939 30.5276 29.124 30.3887C28.8541 30.2498 28.505 30.1803 28.0768 30.1803C27.3365 30.1803 26.7244 30.4303 26.2404 30.9303C25.7563 31.4303 25.5143 32.0137 25.5143 32.6803C25.5143 33.0137 25.5855 33.3264 25.7279 33.6187C25.8702 33.9109 26.0553 34.1814 26.2831 34.4303L34.056 42.097Z" fill="white"/>
</g>
<defs>
<filter id="filter0_d_3117_12239" x="0" y="0" width="67.0938" height="63.749" filterUnits="userSpaceOnUse" color-interpolation-filters="sRGB">
<feFlood flood-opacity="0" result="BackgroundImageFix"/>
<feColorMatrix in="SourceAlpha" type="matrix" values="0 0 0 0 0 0 0 0 0 0 0 0 0 0 0 0 0 0 127 0" result="hardAlpha"/>
<feOffset dy="2"/>
<feGaussianBlur stdDeviation="2"/>
<feComposite in2="hardAlpha" operator="out"/>
<feColorMatrix type="matrix" values="0 0 0 0 0 0 0 0 0 0 0 0 0 0 0 0 0 0 0.15 0"/>
<feBlend mode="normal" in2="BackgroundImageFix" result="effect1_dropShadow_3117_12239"/>
<feBlend mode="normal" in="SourceGraphic" in2="effect1_dropShadow_3117_12239" result="shape"/>
</filter>
<linearGradient id="paint0_linear_3117_12239" x1="4" y1="2" x2="58" y2="61" gradientUnits="userSpaceOnUse">
<stop stop-color="#1DA0E1"/>
<stop offset="1" stop-color="#4DC0F8"/>
</linearGradient>
</defs>
</svg>
