<svg width="50" height="50" viewBox="0 0 50 50" fill="none" xmlns="http://www.w3.org/2000/svg">
<circle cx="24.7618" cy="24.7618" r="24.7618" fill="url(#paint0_linear_3046_19974)"/>
<path d="M30.2331 14.1691C30.2331 13.9103 30.338 13.6621 30.5248 13.4791C30.7117 13.2962 30.965 13.1934 31.2292 13.1934H34.5498C34.814 13.1934 35.0674 13.2962 35.2542 13.4791C35.4411 13.6621 35.546 13.9103 35.546 14.1691V17.4215C35.546 17.6803 35.4411 17.9285 35.2542 18.1115C35.0674 18.2945 34.814 18.3973 34.5498 18.3973C34.2856 18.3973 34.0322 18.2945 33.8454 18.1115C33.6586 17.9285 33.5537 17.6803 33.5537 17.4215V16.5239L27.6165 22.3392C27.4297 22.522 27.1765 22.6246 26.9125 22.6246C26.6485 22.6246 26.3953 22.522 26.2085 22.3392L22.9278 19.1258L17.3226 24.616C17.2314 24.7118 17.1215 24.7887 16.9993 24.842C16.8771 24.8954 16.7452 24.924 16.6114 24.9264C16.4776 24.9287 16.3448 24.9046 16.2207 24.8555C16.0967 24.8064 15.984 24.7334 15.8894 24.6407C15.7948 24.5481 15.7203 24.4377 15.6702 24.3162C15.6201 24.1947 15.5955 24.0646 15.5978 23.9336C15.6002 23.8026 15.6294 23.6733 15.6839 23.5537C15.7383 23.434 15.8168 23.3262 15.9147 23.2369L22.2238 17.0573C22.4106 16.8745 22.6638 16.7719 22.9278 16.7719C23.1918 16.7719 23.445 16.8745 23.6318 17.0573L26.9125 20.2707L32.1457 15.1448H31.2292C30.965 15.1448 30.7117 15.042 30.5248 14.859C30.338 14.6761 30.2331 14.4279 30.2331 14.1691ZM16.6187 28.8051C16.8829 28.8051 17.1363 28.9079 17.3231 29.0909C17.5099 29.2739 17.6149 29.5221 17.6149 29.7808V33.0333C17.6149 33.2921 17.5099 33.5403 17.3231 33.7232C17.1363 33.9062 16.8829 34.009 16.6187 34.009C16.3545 34.009 16.1011 33.9062 15.9143 33.7232C15.7275 33.5403 15.6225 33.2921 15.6225 33.0333V29.7808C15.6225 29.5221 15.7275 29.2739 15.9143 29.0909C16.1011 28.9079 16.3545 28.8051 16.6187 28.8051ZM22.9278 25.8779C22.9278 25.6191 22.8228 25.3709 22.636 25.188C22.4492 25.005 22.1958 24.9022 21.9316 24.9022C21.6674 24.9022 21.414 25.005 21.2272 25.188C21.0404 25.3709 20.9354 25.6191 20.9354 25.8779V33.0333C20.9354 33.2921 21.0404 33.5403 21.2272 33.7232C21.414 33.9062 21.6674 34.009 21.9316 34.009C22.1958 34.009 22.4492 33.9062 22.636 33.7232C22.8228 33.5403 22.9278 33.2921 22.9278 33.0333V25.8779ZM27.2445 27.5041C27.5087 27.5041 27.7621 27.6069 27.9489 27.7899C28.1358 27.9729 28.2407 28.2211 28.2407 28.4799V33.0333C28.2407 33.2921 28.1358 33.5403 27.9489 33.7232C27.7621 33.9062 27.5087 34.009 27.2445 34.009C26.9803 34.009 26.727 33.9062 26.5401 33.7232C26.3533 33.5403 26.2484 33.2921 26.2484 33.0333V28.4799C26.2484 28.2211 26.3533 27.9729 26.5401 27.7899C26.727 27.6069 26.9803 27.5041 27.2445 27.5041ZM33.5537 23.2759C33.5537 23.0172 33.4487 22.769 33.2619 22.586C33.0751 22.403 32.8217 22.3002 32.5575 22.3002C32.2933 22.3002 32.0399 22.403 31.8531 22.586C31.6663 22.769 31.5613 23.0172 31.5613 23.2759V33.0333C31.5613 33.2921 31.6663 33.5403 31.8531 33.7232C32.0399 33.9062 32.2933 34.009 32.5575 34.009C32.8217 34.009 33.0751 33.9062 33.2619 33.7232C33.4487 33.5403 33.5537 33.2921 33.5537 33.0333V23.2759Z" fill="white"/>
<defs>
<linearGradient id="paint0_linear_3046_19974" x1="24.7618" y1="-3.7756e-07" x2="37.4306" y2="49.5235" gradientUnits="userSpaceOnUse">
<stop stop-color="#5FBBFA"/>
<stop offset="1" stop-color="#0980D2"/>
</linearGradient>
</defs>
</svg>
