<svg width="50" height="50" viewBox="0 0 50 50" fill="none" xmlns="http://www.w3.org/2000/svg">
<circle cx="24.7618" cy="24.7618" r="24.7618" fill="url(#paint0_linear_3046_20002)"/>
<path fill-rule="evenodd" clip-rule="evenodd" d="M19.1724 17.4517V15.8531C19.1726 15.2806 19.3496 14.7273 19.6714 14.2935C19.9931 13.8598 20.4382 13.5745 20.9257 13.4894L22.3613 13.2394C23.9528 12.9632 25.5708 12.9632 27.1623 13.2394L28.5978 13.4894C29.0854 13.5745 29.5305 13.8598 29.8522 14.2935C30.1739 14.7273 30.351 15.2806 30.3511 15.8531V17.4517L32.368 17.6402C33.1184 17.7106 33.8268 18.0711 34.3799 18.664C34.933 19.257 35.299 20.0482 35.4192 20.9111C35.9672 24.8359 35.9672 28.8375 35.4192 32.7623C35.299 33.6252 34.933 34.4164 34.3799 35.0094C33.8268 35.6023 33.1184 35.9628 32.368 36.0332L30.1652 36.2382C26.5688 36.5757 22.9548 36.5757 19.3584 36.2382L17.1556 36.0332C16.4052 35.9628 15.6968 35.6023 15.1437 35.0094C14.5905 34.4164 14.2246 33.6252 14.1044 32.7623C13.5564 28.8375 13.5564 24.8359 14.1044 20.9111C14.2248 20.0484 14.5909 19.2576 15.144 18.6649C15.6971 18.0722 16.4053 17.7119 17.1556 17.6416L19.1724 17.4517ZM22.6237 15.2656C24.0412 15.0198 25.4823 15.0198 26.8999 15.2656L28.3354 15.5156C28.4051 15.5277 28.4687 15.5684 28.5147 15.6304C28.5607 15.6923 28.586 15.7713 28.5861 15.8531V17.3082C26.0386 17.1393 23.4849 17.1393 20.9375 17.3082V15.8517C20.9376 15.77 20.9629 15.6909 21.0089 15.629C21.0549 15.5671 21.1185 15.5264 21.1881 15.5143L22.6237 15.2656ZM19.5007 19.4765C23.0026 19.1486 26.521 19.1486 30.0228 19.4765L32.2256 19.6842C32.5826 19.7173 32.9196 19.8886 33.1829 20.1704C33.4461 20.4523 33.6204 20.8286 33.6777 21.239C33.7506 21.7646 33.8134 22.292 33.8659 22.8212C31.0335 24.4399 27.9187 25.2818 24.7618 25.2818C21.6048 25.2818 18.4901 24.4399 15.6576 22.8212C15.7094 22.2929 15.7722 21.7655 15.8459 21.239C15.9032 20.8286 16.0774 20.4523 16.3407 20.1704C16.6039 19.8886 16.941 19.7173 17.2979 19.6842L19.5007 19.4765ZM15.4999 25.0018C18.4086 26.537 21.5667 27.3314 24.7618 27.3314C27.9569 27.3314 31.1149 26.537 34.0236 25.0018C34.1363 27.4866 34.0203 29.9782 33.6777 32.4344C33.6206 32.8451 33.4465 33.2217 33.1832 33.5038C32.9199 33.786 32.5828 33.9574 32.2256 33.9906L30.0228 34.1956C26.521 34.5235 23.0026 34.5235 19.5007 34.1956L17.2979 33.9906C16.9408 33.9574 16.6036 33.786 16.3404 33.5038C16.0771 33.2217 15.903 32.8451 15.8459 32.4344C15.5035 29.9751 15.387 27.483 15.4999 25.0018Z" fill="white"/>
<defs>
<linearGradient id="paint0_linear_3046_20002" x1="24.7618" y1="-3.7756e-07" x2="37.4306" y2="49.5235" gradientUnits="userSpaceOnUse">
<stop stop-color="#5FBBFA"/>
<stop offset="1" stop-color="#0980D2"/>
</linearGradient>
</defs>
</svg>
