<svg width="55" height="52" viewBox="0 0 55 52" fill="none" xmlns="http://www.w3.org/2000/svg">
<rect width="54.0853" height="51.0239" rx="12.2457" fill="url(#paint0_linear_3046_21463)"/>
<path d="M12.6289 22.4965C12.6289 18.3636 16.2567 15.1797 20.5121 15.1797C22.7056 15.1797 24.6374 16.2083 26.0227 17.5401C27.408 16.2083 29.3382 15.1797 31.5333 15.1797C35.7887 15.1797 39.4164 18.3636 39.4164 22.4965C39.4164 22.7445 39.4073 22.9904 39.3889 23.2343C39.3796 23.3464 39.3281 23.4507 39.2449 23.5263C39.1616 23.6019 39.0528 23.643 38.9404 23.6415H37.5673C37.5007 23.6401 37.435 23.625 37.3744 23.597C37.3139 23.5691 37.2598 23.5289 37.2155 23.479C37.1712 23.4291 37.1377 23.3706 37.1171 23.3072C37.0966 23.2437 37.0893 23.1767 37.0959 23.1103C37.1112 22.9073 37.1194 22.7026 37.1204 22.4965C37.1204 19.8178 34.7171 17.4758 31.5333 17.4758C29.7056 17.4758 27.9973 18.5672 26.9335 19.954C26.8263 20.0937 26.6884 20.2069 26.5304 20.2847C26.3725 20.3626 26.1988 20.4031 26.0227 20.4031C25.8466 20.4031 25.6729 20.3626 25.5149 20.2847C25.357 20.2069 25.2191 20.0937 25.1119 19.954C24.0481 18.5672 22.3413 17.4758 20.5121 17.4758C17.3282 17.4758 14.925 19.8178 14.925 22.4965C14.925 24.6441 15.8373 26.6448 17.3068 28.4939C18.7793 30.346 20.7616 31.9824 22.7638 33.3692C23.5215 33.8942 24.2333 34.3397 24.8456 34.6519C25.5007 34.9856 25.8803 35.079 26.0227 35.079C26.165 35.079 26.5447 34.9856 27.2013 34.6504C27.9229 34.27 28.6184 33.842 29.2831 33.3692C29.9337 32.9176 30.5842 32.4401 31.2149 31.9364C31.2671 31.8943 31.3278 31.8639 31.3929 31.8474C31.458 31.8309 31.5259 31.8287 31.5919 31.8409C31.6579 31.8531 31.7205 31.8795 31.7754 31.9181C31.8303 31.9568 31.8761 32.0069 31.9098 32.065L32.6002 33.2728C32.6534 33.3671 32.6715 33.4773 32.6513 33.5837C32.6311 33.6902 32.574 33.7861 32.49 33.8544C31.8593 34.3534 31.2195 34.8188 30.5888 35.2566C29.8383 35.7865 29.0545 36.2676 28.2422 36.697C27.5488 37.0506 26.7498 37.3751 26.0227 37.3751C25.2956 37.3751 24.4981 37.0506 23.8031 36.697C22.9909 36.2676 22.2071 35.7865 21.4565 35.2566C19.3641 33.807 17.1797 32.0237 15.5097 29.9236C13.8366 27.8173 12.6289 25.3283 12.6289 22.4965Z" fill="white"/>
<path d="M31.8499 21.9732C31.7689 21.7965 31.6443 21.6433 31.4879 21.5279C31.3314 21.4125 31.1482 21.3387 30.9555 21.3134C30.7627 21.2882 30.5667 21.3123 30.3858 21.3835C30.2049 21.4548 30.045 21.5708 29.9212 21.7207L26.7572 25.5551H24.4918C24.1873 25.5551 23.8953 25.6761 23.68 25.8914C23.4647 26.1067 23.3438 26.3987 23.3438 26.7031C23.3438 27.0076 23.4647 27.2996 23.68 27.5149C23.8953 27.7302 24.1873 27.8512 24.4918 27.8512H27.2976C27.467 27.8512 27.6343 27.8138 27.7876 27.7415C27.9408 27.6693 28.0761 27.564 28.1839 27.4333L30.5259 24.5938L33.2704 30.582C33.3515 30.7587 33.4761 30.9119 33.6325 31.0273C33.789 31.1427 33.9722 31.2165 34.1649 31.2418C34.3577 31.267 34.5537 31.2429 34.7346 31.1717C34.9155 31.1004 35.0753 30.9844 35.1992 30.8345L37.6605 27.8496H41.3297C41.6341 27.8496 41.9262 27.7287 42.1415 27.5134C42.3568 27.2981 42.4777 27.0061 42.4777 26.7016C42.4777 26.3971 42.3568 26.1051 42.1415 25.8898C41.9262 25.6745 41.6341 25.5536 41.3297 25.5536H37.1202C36.9509 25.5539 36.7838 25.5917 36.6309 25.6642C36.4779 25.7367 36.3429 25.8422 36.2354 25.973L34.5945 27.9614L31.8499 21.9732Z" fill="white"/>
<defs>
<linearGradient id="paint0_linear_3046_21463" x1="8.70865" y1="-4.93395e-07" x2="45.4579" y2="46.6246" gradientUnits="userSpaceOnUse">
<stop stop-color="#4FC1F9"/>
<stop offset="1" stop-color="#1B9EE0"/>
</linearGradient>
</defs>
</svg>
