<svg width="53" height="50" viewBox="0 0 53 50" fill="none" xmlns="http://www.w3.org/2000/svg">
<rect width="53" height="50" rx="12" fill="url(#paint0_linear_3046_21471)"/>
<g clip-path="url(#clip0_3046_21471)">
<path d="M37.81 19.8375L37.482 20.5921C37.4308 20.715 37.3443 20.82 37.2335 20.8938C37.1227 20.9677 36.9925 21.0071 36.8594 21.0071C36.7262 21.0071 36.596 20.9677 36.4852 20.8938C36.3744 20.82 36.288 20.715 36.2367 20.5921L35.9087 19.8375C35.332 18.5024 34.2759 17.432 32.9487 16.8375L31.9367 16.3855C31.8139 16.329 31.7099 16.2385 31.637 16.1247C31.5641 16.0109 31.5254 15.8786 31.5254 15.7435C31.5254 15.6083 31.5641 15.476 31.637 15.3622C31.7099 15.2484 31.8139 15.1579 31.9367 15.1015L32.8927 14.6761C34.2532 14.0646 35.3274 12.9546 35.894 11.5748L36.2314 10.7601C36.2809 10.6339 36.3673 10.5256 36.4794 10.4492C36.5914 10.3729 36.7238 10.332 36.8594 10.332C36.9949 10.332 37.1274 10.3729 37.2394 10.4492C37.3514 10.5256 37.4378 10.6339 37.4874 10.7601L37.8247 11.5735C38.3907 12.9536 39.4644 14.064 40.8247 14.6761L41.782 15.1028C41.9044 15.1594 42.0081 15.2499 42.0807 15.3636C42.1533 15.4772 42.1919 15.6093 42.1919 15.7441C42.1919 15.879 42.1533 16.0111 42.0807 16.1247C42.0081 16.2383 41.9044 16.3288 41.782 16.3855L40.7687 16.8361C39.4418 17.4313 38.3861 18.5022 37.81 19.8375ZM23.526 13.0001H28.8594V15.6668H23.526C21.4043 15.6668 19.3695 16.5097 17.8692 18.01C16.3689 19.5102 15.526 21.5451 15.526 23.6668C15.526 28.4801 18.8087 31.6215 26.1927 34.9735V31.6668H28.8594C30.9811 31.6668 33.0159 30.8239 34.5162 29.3237C36.0165 27.8234 36.8594 25.7885 36.8594 23.6668H39.526C39.526 26.4958 38.4022 29.2089 36.4018 31.2093C34.4015 33.2097 31.6884 34.3335 28.8594 34.3335V39.0001C22.1927 36.3335 12.8594 32.3335 12.8594 23.6668C12.8594 20.8378 13.9832 18.1247 15.9836 16.1243C17.984 14.1239 20.6971 13.0001 23.526 13.0001Z" fill="white"/>
</g>
<defs>
<linearGradient id="paint0_linear_3046_21471" x1="8.5339" y1="-4.83494e-07" x2="44.5457" y2="45.689" gradientUnits="userSpaceOnUse">
<stop stop-color="#4FC1F9"/>
<stop offset="1" stop-color="#1B9EE0"/>
</linearGradient>
<clipPath id="clip0_3046_21471">
<rect width="32" height="32" fill="white" transform="translate(10.1953 9)"/>
</clipPath>
</defs>
</svg>
