<svg width="53" height="50" viewBox="0 0 53 50" fill="none" xmlns="http://www.w3.org/2000/svg">
<rect width="53" height="50" rx="12" fill="url(#paint0_linear_3046_21478)"/>
<g clip-path="url(#clip0_3046_21478)">
<path d="M42.7479 15.4559C42.7262 15.0894 42.5708 14.7435 42.3112 14.4839C42.0515 14.2242 41.7057 14.0689 41.3391 14.0472C34.6804 13.6559 29.3141 15.7172 26.9841 19.5647C25.4666 22.0647 25.4141 25.0859 26.8016 27.9772C26.1263 28.8387 25.6068 29.8117 25.2666 30.8522L23.6841 29.2697C24.5829 27.1734 24.4879 25.0059 23.3841 23.1834C21.6366 20.2947 17.6566 18.7497 12.7391 19.0334C12.3724 19.0551 12.0264 19.2107 11.7667 19.4706C11.5071 19.7305 11.3518 20.0766 11.3304 20.4434C11.0454 25.3609 12.5904 29.3409 15.4766 31.0884C16.4555 31.685 17.5803 31.9995 18.7266 31.9972C19.704 31.9893 20.6695 31.7821 21.5641 31.3884L24.7954 34.6247V37.4997C24.7954 37.8975 24.9534 38.279 25.2347 38.5603C25.516 38.8416 25.8976 38.9997 26.2954 38.9997C26.6932 38.9997 27.0748 38.8416 27.3561 38.5603C27.6374 38.279 27.7954 37.8975 27.7954 37.4997V33.8134C27.7923 32.4726 28.2069 31.164 28.9816 30.0697C30.2366 30.6642 31.6056 30.9793 32.9941 30.9934C34.4882 30.9968 35.9541 30.5876 37.2304 29.8109C41.0766 27.4809 43.1404 22.1147 42.7479 15.4559ZM17.0304 28.5222C15.3816 27.5222 14.3829 25.0897 14.3016 22.0059C17.3854 22.0872 19.8191 23.0859 20.8179 24.7347C21.2085 25.37 21.3687 26.1202 21.2716 26.8597L19.8554 25.4384C19.5736 25.1566 19.1914 24.9983 18.7929 24.9983C18.3944 24.9983 18.0122 25.1566 17.7304 25.4384C17.4486 25.7202 17.2903 26.1024 17.2903 26.5009C17.2903 26.8994 17.4486 27.2816 17.7304 27.5634L19.1479 28.9809C18.4105 29.072 17.664 28.9102 17.0304 28.5222ZM35.6766 27.2497C34.3441 28.0559 32.8016 28.2084 31.2004 27.7197L35.8566 23.0647C36.1384 22.7829 36.2968 22.4007 36.2968 22.0022C36.2968 21.6036 36.1384 21.2214 35.8566 20.9397C35.5749 20.6579 35.1927 20.4996 34.7941 20.4996C34.3956 20.4996 34.0134 20.6579 33.7316 20.9397L29.0754 25.5947C28.5917 23.9997 28.7441 22.4509 29.5454 21.1247C31.1329 18.4997 34.8766 16.9997 39.7104 16.9997H39.7954C39.8129 21.8747 38.3129 25.6472 35.6766 27.2497Z" fill="white"/>
</g>
<defs>
<linearGradient id="paint0_linear_3046_21478" x1="8.5339" y1="-4.83494e-07" x2="44.5457" y2="45.689" gradientUnits="userSpaceOnUse">
<stop stop-color="#4FC1F9"/>
<stop offset="1" stop-color="#1B9EE0"/>
</linearGradient>
<clipPath id="clip0_3046_21478">
<rect width="32" height="32" fill="white" transform="translate(10.793 9)"/>
</clipPath>
</defs>
</svg>
