<svg width="53" height="50" viewBox="0 0 53 50" fill="none" xmlns="http://www.w3.org/2000/svg">
<rect width="53" height="50" rx="12" fill="url(#paint0_linear_3046_21486)"/>
<path d="M24.5186 23.3745L16.2703 31.6228C16.0533 31.8395 15.8812 32.0969 15.7638 32.3801C15.6464 32.6634 15.5859 32.967 15.5859 33.2737C15.5859 33.5803 15.6464 33.8839 15.7638 34.1672C15.8812 34.4505 16.0533 34.7078 16.2703 34.9245C16.7078 35.3619 17.3012 35.6077 17.9199 35.6077C18.5387 35.6077 19.132 35.3619 19.5696 34.9245L27.8179 26.6738M32.8521 27.0997L37.3764 31.624C37.8139 32.0616 38.0596 32.6549 38.0596 33.2737C38.0596 33.8924 37.8139 34.4858 37.3764 34.9233C36.9389 35.3608 36.3455 35.6065 35.7268 35.6065C35.1081 35.6065 34.5147 35.3608 34.0771 34.9233L26.8333 27.6807M20.6488 17.8877L18.1719 18.7113L15.6986 14.5872L17.3483 12.9375L21.4736 15.412L20.6488 17.8877ZM20.6488 17.8877L23.9504 21.1893" stroke="white" stroke-width="2.25" stroke-linecap="round" stroke-linejoin="round"/>
<path d="M24.5178 23.3746C23.5331 20.8628 23.7256 17.567 25.7556 15.537C27.7856 13.507 31.5306 13.0625 33.5921 14.3003L30.0454 17.847L29.7153 21.4765L33.3448 21.1475L36.8914 17.5996C38.1304 19.6623 37.6848 23.4073 35.6548 25.4361C33.6248 27.4661 30.3301 27.6586 27.8183 26.674" stroke="white" stroke-width="2.25" stroke-linecap="round" stroke-linejoin="round"/>
<defs>
<linearGradient id="paint0_linear_3046_21486" x1="8.5339" y1="-4.83494e-07" x2="44.5457" y2="45.689" gradientUnits="userSpaceOnUse">
<stop stop-color="#4FC1F9"/>
<stop offset="1" stop-color="#1B9EE0"/>
</linearGradient>
</defs>
</svg>
