<svg width="63" height="63" viewBox="0 0 63 63" fill="none" xmlns="http://www.w3.org/2000/svg">
<rect width="63" height="63" rx="16.8" fill="#E5F5FF"/>
<rect width="32.4855" height="32.4855" transform="translate(15.2578 15.2568)" fill="#E5F5FF"/>
<path d="M43.6826 22.2686V38.2677C43.6823 39.4595 43.2888 40.6179 42.5631 41.5633C41.8374 42.5087 40.82 43.1882 39.6687 43.4965C38.5175 43.8048 37.2967 43.7246 36.1957 43.2683C35.0946 42.8121 34.1749 42.0053 33.5791 40.9731C32.9833 39.9409 32.7448 38.7409 32.9004 37.5593C33.0561 36.3777 33.5973 35.2805 34.4401 34.4378C35.2829 33.5951 36.3801 33.0541 37.5618 32.8985C38.7434 32.743 39.9433 32.9817 40.9754 33.5776V27.6842L27.4398 29.9392V39.6213C27.4398 39.7025 27.4331 39.781 27.4195 39.8568C27.5167 40.8977 27.2669 41.9414 26.709 42.8255C26.1511 43.7096 25.3164 44.3843 24.335 44.7445C23.3537 45.1047 22.2807 45.1302 21.2834 44.8171C20.286 44.5039 19.4202 43.8697 18.8209 43.0131C18.2216 42.1566 17.9224 41.1259 17.97 40.0816C18.0176 39.0373 18.4092 38.038 19.0839 37.2395C19.7587 36.441 20.6785 35.8881 21.7003 35.667C22.722 35.4458 23.7882 35.5688 24.7327 36.0167V24.525C24.7326 23.8842 24.9599 23.2641 25.374 22.7751C25.7882 22.2861 26.3624 21.9598 26.9945 21.8544L40.5301 19.5994C40.9179 19.5347 41.315 19.5553 41.694 19.6596C42.073 19.764 42.4248 19.9496 42.7248 20.2036C43.0248 20.4576 43.2659 20.7739 43.4313 21.1305C43.5967 21.4872 43.6824 21.8755 43.6826 22.2686ZM22.7023 38.2677C22.1639 38.2677 21.6474 38.4816 21.2667 38.8624C20.8859 39.2432 20.672 39.7596 20.672 40.2981C20.672 40.8365 20.8859 41.353 21.2667 41.7337C21.6474 42.1145 22.1639 42.3284 22.7023 42.3284C23.2408 42.3284 23.7573 42.1145 24.138 41.7337C24.5188 41.353 24.7327 40.8365 24.7327 40.2981C24.7327 39.7596 24.5188 39.2432 24.138 38.8624C23.7573 38.4816 23.2408 38.2677 22.7023 38.2677ZM38.2683 35.5606C37.5503 35.5606 36.8618 35.8458 36.3541 36.3535C35.8464 36.8612 35.5612 37.5497 35.5612 38.2677C35.5612 38.9857 35.8464 39.6743 36.3541 40.1819C36.8618 40.6896 37.5503 40.9748 38.2683 40.9748C38.9863 40.9748 39.6749 40.6896 40.1825 40.1819C40.6902 39.6743 40.9754 38.9857 40.9754 38.2677C40.9754 37.5497 40.6902 36.8612 40.1825 36.3535C39.6749 35.8458 38.9863 35.5606 38.2683 35.5606ZM40.9754 22.2686L27.4398 24.525V27.1956L40.9754 24.9392V22.2686Z" fill="#1C76AE"/>
</svg>
