<svg width="63" height="63" viewBox="0 0 63 63" fill="none" xmlns="http://www.w3.org/2000/svg">
<rect width="63" height="63" rx="16.8" fill="#E5F5FF"/>
<path d="M39 41.3333L36.3333 38.6667V22.6667C36.3333 21.172 37.5053 20 39 20C40.4947 20 41.6667 21.172 41.6667 22.6667V38.6667L39 41.3333ZM39 41.3333H21.6667C20.9594 41.3333 20.2811 41.0524 19.781 40.5523C19.281 40.0522 19 39.3739 19 38.6667C19 37.9594 19.281 37.2811 19.781 36.781C20.2811 36.281 20.9594 36 21.6667 36H27C27.7072 36 28.3855 35.719 28.8856 35.219C29.3857 34.7189 29.6667 34.0406 29.6667 33.3333C29.6667 32.6261 29.3857 31.9478 28.8856 31.4477C28.3855 30.9476 27.7072 30.6667 27 30.6667H23M36.3333 25.3333H41.6667" stroke="#155A85" stroke-width="2.66667" stroke-linecap="round" stroke-linejoin="round"/>
</svg>
