<svg width="63" height="63" viewBox="0 0 63 63" fill="none" xmlns="http://www.w3.org/2000/svg">
<rect width="63" height="63" rx="16.8" fill="#E5F5FF"/>
<path d="M28.5419 42.5941C22.9641 42.5941 20.1745 42.5941 18.4425 40.8606C16.7105 39.127 16.709 36.3389 16.709 30.7612V29.2821C16.709 23.7044 16.709 20.9148 18.4425 19.1827C20.176 17.4507 22.9641 17.4492 28.5419 17.4492H33.7187C38.5821 17.4492 41.0122 17.4492 42.6496 18.7922C42.9489 19.0379 43.2234 19.3124 43.469 19.6117C44.8121 21.2505 44.8121 23.6792 44.8121 28.5425M16.709 26.3239H44.8121" stroke="#155A85" stroke-width="2.11984" stroke-linecap="round" stroke-linejoin="round"/>
<path d="M21.8857 21.8867H21.9005M27.7874 21.8867H27.8022" stroke="#155A85" stroke-width="2.82645" stroke-linecap="round" stroke-linejoin="round"/>
<path d="M35.4526 45.5525H32.9795V43.0794C32.9797 42.2949 33.2914 41.5426 33.8463 40.988L41.9459 32.8898C42.3619 32.4739 42.9261 32.2402 43.5144 32.2402C44.1028 32.2402 44.667 32.4739 45.083 32.8898L45.6436 33.4504C46.0596 33.8665 46.2932 34.4307 46.2932 35.019C46.2932 35.6073 46.0596 36.1715 45.6436 36.5876L37.544 44.6857C36.9894 45.2405 36.2371 45.5523 35.4526 45.5525Z" stroke="#155A85" stroke-width="2.11984" stroke-linejoin="round"/>
</svg>
