<svg width="63" height="63" viewBox="0 0 63 63" fill="none" xmlns="http://www.w3.org/2000/svg">
<rect width="63" height="63" rx="16.8" fill="#E5F5FF"/>
<path d="M27 44H35M39 29V31C39 35.4 35.4 39 31 39M31 39C26.6 39 23 35.4 23 31V29M31 39V44" stroke="#155A85" stroke-width="2" stroke-linecap="round" stroke-linejoin="round"/>
<path d="M31.0001 20.0001C30.474 19.9974 29.9527 20.0991 29.4662 20.2991C28.9797 20.4992 28.5377 20.7938 28.1657 21.1657C27.7938 21.5377 27.4992 21.9797 27.2991 22.4662C27.0991 22.9527 26.9974 23.474 27.0001 24.0001V30.9376C27.0001 33.1376 28.8126 35.0001 31.0001 35.0001C33.1876 35.0001 35.0001 33.1876 35.0001 30.9376V24.0001C35.0001 21.7501 33.2501 20.0001 31.0001 20.0001Z" stroke="#155A85" stroke-width="2" stroke-linecap="round" stroke-linejoin="round"/>
</svg>
