<svg width="63" height="63" viewBox="0 0 63 63" fill="none" xmlns="http://www.w3.org/2000/svg">
<rect width="63" height="63" rx="16.8" fill="#E5F5FF"/>
<path d="M38.0044 31.499C37.5339 31.499 37.0827 31.3121 36.75 30.9795C36.4174 30.6468 36.2305 30.1956 36.2305 29.7251C36.2305 29.2546 36.4174 28.8034 36.75 28.4707C37.0827 28.1381 37.5339 27.9512 38.0044 27.9512C38.4749 27.9512 38.9261 28.1381 39.2587 28.4707C39.5914 28.8034 39.7783 29.2546 39.7783 29.7251C39.7783 30.1956 39.5914 30.6468 39.2587 30.9795C38.9261 31.3121 38.4749 31.499 38.0044 31.499ZM34.4565 26.7686C33.9861 26.7686 33.5349 26.5817 33.2022 26.249C32.8695 25.9163 32.6826 25.4651 32.6826 24.9946C32.6826 24.5242 32.8695 24.0729 33.2022 23.7403C33.5349 23.4076 33.9861 23.2207 34.4565 23.2207C34.927 23.2207 35.3782 23.4076 35.7109 23.7403C36.0436 24.0729 36.2305 24.5242 36.2305 24.9946C36.2305 25.4651 36.0436 25.9163 35.7109 26.249C35.3782 26.5817 34.927 26.7686 34.4565 26.7686ZM28.5435 26.7686C28.073 26.7686 27.6218 26.5817 27.2891 26.249C26.9564 25.9163 26.7695 25.4651 26.7695 24.9946C26.7695 24.5242 26.9564 24.0729 27.2891 23.7403C27.6218 23.4076 28.073 23.2207 28.5435 23.2207C29.0139 23.2207 29.4651 23.4076 29.7978 23.7403C30.1305 24.0729 30.3174 24.5242 30.3174 24.9946C30.3174 25.4651 30.1305 25.9163 29.7978 26.249C29.4651 26.5817 29.0139 26.7686 28.5435 26.7686ZM24.9956 31.499C24.5251 31.499 24.0739 31.3121 23.7413 30.9795C23.4086 30.6468 23.2217 30.1956 23.2217 29.7251C23.2217 29.2546 23.4086 28.8034 23.7413 28.4707C24.0739 28.1381 24.5251 27.9512 24.9956 27.9512C25.4661 27.9512 25.9173 28.1381 26.25 28.4707C26.5826 28.8034 26.7695 29.2546 26.7695 29.7251C26.7695 30.1956 26.5826 30.6468 26.25 30.9795C25.9173 31.3121 25.4661 31.499 24.9956 31.499ZM31.5 20.8555C28.6772 20.8555 25.9699 21.9768 23.9739 23.9729C21.9778 25.9689 20.8564 28.6762 20.8564 31.499C20.8564 34.3219 21.9778 37.0291 23.9739 39.0252C25.9699 41.0212 28.6772 42.1426 31.5 42.1426C31.9705 42.1426 32.4217 41.9557 32.7544 41.623C33.087 41.2903 33.2739 40.8391 33.2739 40.3687C33.2739 39.9074 33.0965 39.4935 32.8127 39.186C32.5407 38.8667 32.3633 38.4528 32.3633 38.0034C32.3633 37.5329 32.5502 37.0817 32.8829 36.7491C33.2156 36.4164 33.6668 36.2295 34.1372 36.2295H36.2305C37.7987 36.2295 39.3027 35.6065 40.4117 34.4976C41.5206 33.3887 42.1436 31.8847 42.1436 30.3164C42.1436 25.0892 37.3776 20.8555 31.5 20.8555Z" fill="#2F3D43"/>
</svg>
