<svg width="63" height="63" viewBox="0 0 63 63" fill="none" xmlns="http://www.w3.org/2000/svg">
<rect width="63" height="63" rx="16.8" fill="#E5F5FF"/>
<path d="M23.1207 36.0007C22.6013 34.8269 22.3334 33.5575 22.334 32.274C22.334 27.3367 26.214 23.334 31.0007 23.334C35.7873 23.334 39.6673 27.338 39.6673 32.2753C39.6677 33.5584 39.3998 34.8273 38.8807 36.0007" stroke="#155A85" stroke-width="2" stroke-linecap="round"/>
<path d="M31.0003 18.667V20.0003M44.3337 32.0003H43.0003M19.0003 32.0003H17.667M40.427 22.571L39.4843 23.5137M22.5163 23.515L21.5737 22.5723M34.3563 41.7417C35.703 41.3057 36.2443 40.0723 36.3963 38.8323C36.4417 38.4617 36.1363 38.1537 35.763 38.1537H26.303C26.2118 38.1522 26.1214 38.1701 26.0377 38.2062C25.9539 38.2424 25.8788 38.2958 25.8173 38.3631C25.7558 38.4304 25.7093 38.51 25.6809 38.5967C25.6524 38.6833 25.6427 38.775 25.6523 38.8657C25.8017 40.103 26.1777 41.0083 27.6043 41.7417M34.3563 41.7417H27.6043M34.3563 41.7417C34.195 44.335 33.4457 45.3617 31.0097 45.3323C28.4043 45.3803 27.8043 44.111 27.6043 41.7417" stroke="#155A85" stroke-width="2" stroke-linecap="round" stroke-linejoin="round"/>
</svg>
