<svg width="30" height="32" viewBox="0 0 30 32" fill="none" xmlns="http://www.w3.org/2000/svg">
<g clip-path="url(#clip0_3427_698)">
<g clip-path="url(#clip1_3427_698)">
<path d="M14.3699 23.1275C20.7572 23.1275 25.9351 17.9496 25.9351 11.5623C25.9351 5.17499 20.7572 -0.00292969 14.3699 -0.00292969C7.98261 -0.00292969 2.80469 5.17499 2.80469 11.5623C2.80469 17.9496 7.98261 23.1275 14.3699 23.1275Z" fill="url(#paint0_linear_3427_698)"/>
<path d="M11.7159 6.06571C13.424 5.24487 14.276 3.47124 13.6191 2.10422C12.9621 0.737195 11.0449 0.294433 9.33684 1.11528C7.62879 1.93613 6.77671 3.70975 7.43367 5.07678C8.09063 6.4438 10.0079 6.88656 11.7159 6.06571Z" fill="url(#paint1_radial_3427_698)"/>
<path d="M18.8472 13.549C19.0699 13.7789 19.2154 14.0739 19.3175 14.3753C19.57 15.1541 19.4738 16.0382 19.1499 16.7891C18.0141 19.4283 14.6033 20.4253 12.0757 19.2489C10.8148 18.6856 9.7527 17.5828 9.39716 16.2284C9.2282 15.5788 9.2282 14.8659 9.4699 14.2434C9.56298 13.9861 9.7066 13.75 9.8923 13.549C9.97042 13.4679 10.0776 13.4211 10.1902 13.419C10.3028 13.4169 10.4116 13.4596 10.4927 13.5377C10.6004 13.6612 10.7152 13.7782 10.8365 13.8883C11.3836 14.3961 12.0409 14.6599 12.7497 14.7584C13.576 14.8691 14.3309 14.8627 15.1477 14.8343C15.9862 14.7995 16.8739 14.6752 17.5908 14.1426C17.6645 14.0907 17.7562 14.017 17.8253 13.9583C17.9717 13.8318 18.1089 13.695 18.236 13.549C18.2755 13.5079 18.323 13.4752 18.3755 13.4528C18.428 13.4305 18.4845 13.419 18.5416 13.419C18.5986 13.419 18.6551 13.4305 18.7076 13.4528C18.7602 13.4752 18.8076 13.5079 18.8472 13.549Z" fill="#6A371A"/>
<path d="M9.56 10.4598C10.6314 10.4598 11.4999 9.59133 11.4999 8.51996C11.4999 7.44859 10.6314 6.58008 9.56 6.58008C8.48863 6.58008 7.62012 7.44859 7.62012 8.51996C7.62012 9.59133 8.48863 10.4598 9.56 10.4598Z" fill="#6A371A"/>
<path d="M19.1801 10.4598C20.2515 10.4598 21.12 9.59133 21.12 8.51996C21.12 7.44859 20.2515 6.58008 19.1801 6.58008C18.1087 6.58008 17.2402 7.44859 17.2402 8.51996C17.2402 9.59133 18.1087 10.4598 19.1801 10.4598Z" fill="#6A371A"/>
</g>
</g>
<g filter="url(#filter0_f_3427_698)">
<ellipse cx="14.765" cy="22.2166" rx="7.52083" ry="1.90409" fill="#FF8505"/>
</g>
<defs>
<filter id="filter0_f_3427_698" x="0.00039053" y="13.0687" width="29.5295" height="18.2961" filterUnits="userSpaceOnUse" color-interpolation-filters="sRGB">
<feFlood flood-opacity="0" result="BackgroundImageFix"/>
<feBlend mode="normal" in="SourceGraphic" in2="BackgroundImageFix" result="shape"/>
<feGaussianBlur stdDeviation="3.62188" result="effect1_foregroundBlur_3427_698"/>
</filter>
<linearGradient id="paint0_linear_3427_698" x1="6.19203" y1="3.38441" x2="22.5478" y2="19.7401" gradientUnits="userSpaceOnUse">
<stop stop-color="#FDF33F"/>
<stop offset="0.15" stop-color="#FDE639"/>
<stop offset="0.42" stop-color="#FDC42A"/>
<stop offset="0.78" stop-color="#FE8E11"/>
<stop offset="1" stop-color="#FE6900"/>
</linearGradient>
<radialGradient id="paint1_radial_3427_698" cx="0" cy="0" r="1" gradientUnits="userSpaceOnUse" gradientTransform="translate(10.5597 3.58991) rotate(4.21865) scale(3.11865)">
<stop stop-color="#FEFCF5"/>
<stop offset="0.26" stop-color="#FEFDF5" stop-opacity="0.72"/>
<stop offset="0.78" stop-color="#FFFEF6" stop-opacity="0.21"/>
<stop offset="1" stop-color="#FFFEF6" stop-opacity="0"/>
</radialGradient>
<clipPath id="clip0_3427_698">
<rect width="23.125" height="23.125" fill="white" transform="translate(2.80664)"/>
</clipPath>
<clipPath id="clip1_3427_698">
<rect width="23.1304" height="23.1304" fill="white" transform="translate(2.80469 -0.00292969)"/>
</clipPath>
</defs>
</svg>
