<svg width="56" height="55" viewBox="0 0 56 55" fill="none" xmlns="http://www.w3.org/2000/svg">
<rect width="55.2237" height="54.3033" rx="10.2513" fill="url(#paint0_linear_3046_23751)"/>
<g clip-path="url(#clip0_3046_23751)">
<path d="M34.9317 21.4936L34.669 22.098C34.6279 22.1964 34.5587 22.2805 34.4699 22.3396C34.3812 22.3987 34.277 22.4303 34.1703 22.4303C34.0637 22.4303 33.9594 22.3987 33.8707 22.3396C33.7819 22.2805 33.7127 22.1964 33.6716 22.098L33.409 21.4936C32.9471 20.4244 32.1013 19.5671 31.0383 19.0909L30.2279 18.7289C30.1295 18.6837 30.0462 18.6112 29.9878 18.5201C29.9295 18.429 29.8984 18.323 29.8984 18.2148C29.8984 18.1065 29.9295 18.0006 29.9878 17.9094C30.0462 17.8183 30.1295 17.7458 30.2279 17.7006L30.9935 17.36C32.0831 16.8702 32.9434 15.9813 33.3972 14.8762L33.6674 14.2237C33.707 14.1227 33.7763 14.0359 33.866 13.9747C33.9557 13.9136 34.0617 13.8809 34.1703 13.8809C34.2789 13.8809 34.385 13.9136 34.4747 13.9747C34.5644 14.0359 34.6336 14.1227 34.6733 14.2237L34.9434 14.8751C35.3967 15.9804 36.2567 16.8698 37.3461 17.36L38.1128 17.7017C38.2108 17.747 38.2938 17.8195 38.352 17.9105C38.4102 18.0015 38.4411 18.1073 38.4411 18.2153C38.4411 18.3233 38.4102 18.4291 38.352 18.5201C38.2938 18.6111 38.2108 18.6836 38.1128 18.7289L37.3012 19.0899C36.2385 19.5665 35.3931 20.4242 34.9317 21.4936ZM23.4919 16.0177H27.7633V18.1534H23.4919C21.7927 18.1534 20.163 18.8284 18.9615 20.0299C17.7599 21.2315 17.0849 22.8612 17.0849 24.5604C17.0849 28.4153 19.7139 30.9311 25.6276 33.6157V30.9674H27.7633C29.4625 30.9674 31.0922 30.2924 32.2937 29.0909C33.4953 27.8893 34.1703 26.2597 34.1703 24.5604H36.306C36.306 26.8261 35.406 28.9989 33.8039 30.601C32.2018 32.2031 30.029 33.1031 27.7633 33.1031V36.8406C22.4241 34.7049 14.9492 31.5014 14.9492 24.5604C14.9492 22.2947 15.8493 20.1219 17.4513 18.5198C19.0534 16.9177 21.2263 16.0177 23.4919 16.0177Z" fill="white"/>
</g>
<defs>
<linearGradient id="paint0_linear_3046_23751" x1="0" y1="0" x2="54.2956" y2="55.2159" gradientUnits="userSpaceOnUse">
<stop stop-color="#A745FA"/>
<stop offset="1" stop-color="#7432AD"/>
</linearGradient>
<clipPath id="clip0_3046_23751">
<rect width="25.6281" height="25.6281" fill="white" transform="translate(12.8145 12.8145)"/>
</clipPath>
</defs>
</svg>
