<svg width="52" height="51" viewBox="0 0 52 51" fill="none" xmlns="http://www.w3.org/2000/svg">
<rect width="51.255" height="50.4007" rx="10.251" fill="url(#paint0_linear_3046_23769)"/>
<path d="M18.4193 17.623H17.3537C16.4691 17.623 15.752 18.3402 15.752 19.2248V32.0385C15.752 32.9231 16.4691 33.6402 17.3537 33.6402H18.4193C19.304 33.6402 20.0211 32.9231 20.0211 32.0385V19.2248C20.0211 18.3402 19.304 17.623 18.4193 17.623Z" stroke="white" stroke-width="1.60172" stroke-linecap="round" stroke-linejoin="round"/>
<path d="M25.308 17.623H24.2423C23.3577 17.623 22.6406 18.3402 22.6406 19.2248V32.0385C22.6406 32.9231 23.3577 33.6402 24.2423 33.6402H25.308C26.1926 33.6402 26.9097 32.9231 26.9097 32.0385V19.2248C26.9097 18.3402 26.1926 17.623 25.308 17.623Z" stroke="white" stroke-width="1.60172" stroke-linecap="round" stroke-linejoin="round"/>
<path d="M29.1166 21.7599C28.9404 21.1032 29.3301 20.4284 29.9858 20.2533L31.0942 19.9564C31.7498 19.7802 32.4236 20.17 32.5998 20.8256L35.4626 31.5187C35.5045 31.6746 35.5153 31.8373 35.4944 31.9974C35.4734 32.1575 35.421 32.3119 35.3403 32.4518C35.2595 32.5916 35.152 32.7142 35.0238 32.8124C34.8957 32.9107 34.7494 32.9827 34.5934 33.0243L33.485 33.3222C33.329 33.3642 33.1662 33.3749 33.0061 33.3539C32.8459 33.3328 32.6914 33.2803 32.5516 33.1995C32.4117 33.1187 32.2892 33.011 32.191 32.8827C32.0928 32.7545 32.0209 32.6081 31.9794 32.4519L29.1166 21.7599Z" stroke="white" stroke-width="1.60172" stroke-linecap="round" stroke-linejoin="round"/>
<defs>
<linearGradient id="paint0_linear_3046_23769" x1="0" y1="0" x2="50.3936" y2="51.2477" gradientUnits="userSpaceOnUse">
<stop stop-color="#00D469"/>
<stop offset="1" stop-color="#00AF46"/>
</linearGradient>
</defs>
</svg>
