<svg width="52" height="51" viewBox="0 0 52 51" fill="none" xmlns="http://www.w3.org/2000/svg">
<rect width="51.255" height="50.4007" rx="10.251" fill="url(#paint0_linear_3046_23760)"/>
<path d="M25.6261 20.8227C26.4269 17.6613 29.4517 16.0471 36.0372 16.0176C36.1425 16.0172 36.2468 16.0376 36.3442 16.0777C36.4415 16.1178 36.53 16.1768 36.6044 16.2513C36.6789 16.3257 36.7378 16.4142 36.778 16.5115C36.8181 16.6088 36.8385 16.7132 36.8381 16.8184V31.2339C36.8381 31.4463 36.7537 31.65 36.6035 31.8002C36.4534 31.9504 36.2496 32.0348 36.0372 32.0348C29.6304 32.0348 27.1552 33.3266 25.6261 35.2382M25.6261 20.8227C24.8252 17.6613 21.8005 16.0471 15.2149 16.0176C15.1096 16.0172 15.0053 16.0376 14.908 16.0777C14.8106 16.1178 14.7222 16.1768 14.6477 16.2513C14.5733 16.3257 14.5143 16.4142 14.4742 16.5115C14.4341 16.6088 14.4137 16.7132 14.4141 16.8184V31.1373C14.4141 31.6318 14.7204 32.0348 15.2149 32.0348C21.6218 32.0348 24.106 33.3362 25.6261 35.2382M25.6261 20.8227V35.2382" stroke="white" stroke-width="1.9125" stroke-linecap="round" stroke-linejoin="round"/>
<defs>
<linearGradient id="paint0_linear_3046_23760" x1="0" y1="0" x2="50.3936" y2="51.2477" gradientUnits="userSpaceOnUse">
<stop stop-color="#71A5FF"/>
<stop offset="1" stop-color="#2381EB"/>
</linearGradient>
</defs>
</svg>
